<svg version="1.1" xmlns="http://www.w3.org/2000/svg" xmlns:xlink="http://www.w3.org/1999/xlink" width="1600" height="1600" viewBox="277.5,-137.5,1600,1600"><defs><clipPath id="clip-1"><rect x="277.5" y="-137.5" width="1600" height="1600" id="clip-1" fill="none" fill-rule="nonzero"/></clipPath></defs><g id="document" fill="#ffffff" fill-rule="nonzero" stroke="#000000" stroke-width="0" stroke-linecap="butt" stroke-linejoin="miter" stroke-miterlimit="10" stroke-dasharray="" stroke-dashoffset="0" font-family="none" font-weight="none" font-size="none" text-anchor="none" style="mix-blend-mode: normal"><rect x="727.5" y="223.21429" transform="scale(1,1.4)" width="700" height="500" id="Shape 1 1" vector-effect="non-scaling-stroke"/></g><g fill="none" fill-rule="none" stroke="none" stroke-width="1" stroke-linecap="butt" stroke-linejoin="miter" stroke-miterlimit="10" stroke-dasharray="" stroke-dashoffset="0" font-family="none" font-weight="none" font-size="none" text-anchor="none" style="mix-blend-mode: normal"><g><g id="stage"><g id="layer1 1"><g clip-path="url(#clip-1)" id="Group 1"><path d="M926.8343,329.216c1.1,0.266 2.9,1.283 4,2.259c1.1,0.976 2.993,2.287 4.208,2.913c1.268,0.653 6.589,1.1 12.5,1.05c5.66,-0.048 12.412,0.394 15.003,0.983c2.592,0.588 7.317,2.374 10.5,3.967c3.184,1.593 6.858,3.219 8.165,3.612c1.308,0.393 6.483,1.004 11.5,1.358c8.906,0.627 9.118,0.7 8.856,3.061c-0.148,1.33 -1.16,3.043 -2.25,3.806c-1.09,0.764 -1.97,1.7 -1.955,2.082c0.015,0.381 2.166,3.008 4.781,5.837c2.651,2.87 7.097,9.723 10.054,15.5c2.915,5.696 6.429,12.606 7.809,15.356c1.38,2.75 3.447,6.943 4.594,9.318c1.146,2.374 4.617,6.946 7.713,10.159c4.807,4.99 6.312,5.944 10.325,6.546c2.583,0.387 4.687,1.215 4.674,1.841c-0.012,0.625 -1.441,1.835 -3.174,2.688c-1.733,0.854 -3.617,2.291 -4.186,3.194c-0.718,1.138 -0.695,3.114 0.073,6.447c0.61,2.644 1.888,7.057 2.84,9.807c0.952,2.75 4.147,9.95 7.101,16c2.953,6.05 6.138,12.219 7.076,13.71c0.939,1.49 1.391,3.025 1.005,3.411c-0.386,0.386 -2.471,0.119 -4.633,-0.595c-2.162,-0.713 -4.703,-1.001 -5.647,-0.638c-1.503,0.577 -1.633,1.645 -1.051,8.63c0.366,4.385 1.154,9.212 1.753,10.727c0.598,1.515 2.128,6.889 3.4,11.941c1.271,5.053 3.34,10.578 4.597,12.278c1.642,2.22 3.99,3.619 8.328,4.963c4.644,1.439 6.014,2.3 5.926,3.722c-0.063,1.018 -0.427,2.583 -0.81,3.479c-0.526,1.232 -0.012,1.757 2.115,2.161c1.545,0.294 6.361,1.501 10.701,2.682c4.339,1.181 9.506,3.246 11.482,4.588c1.975,1.343 4.062,2.441 4.637,2.441c0.575,0 1.816,0.9 2.758,2c0.942,1.1 2.444,2 3.338,2c0.894,0 3.727,1.542 6.294,3.427c2.568,1.885 5.887,3.733 7.377,4.106c1.49,0.374 2.461,1.082 2.157,1.574c-0.304,0.491 0.15,0.893 1.007,0.893c0.857,0 1.559,0.45 1.559,1c0,0.55 0.612,1 1.36,1c0.749,0 3.019,1.125 5.045,2.5c2.026,1.375 4.157,2.5 4.735,2.5c0.578,0 2.246,0.837 3.706,1.861c1.46,1.023 5.082,2.434 8.049,3.134c2.967,0.701 6.567,1.886 8,2.633c1.433,0.748 3.636,1.362 4.895,1.366c1.26,0.003 3.51,0.873 5,1.932c1.491,1.059 6.085,2.668 10.21,3.575c4.125,0.907 8.38,2.126 9.455,2.71c1.075,0.584 4.675,1.724 8,2.533c3.325,0.809 7.607,1.669 9.516,1.911c1.908,0.242 3.713,0.834 4.01,1.314c0.296,0.48 1.885,1.186 3.529,1.569c1.645,0.383 5.24,1.386 7.99,2.229c2.75,0.842 5.71,2.139 6.579,2.882c0.868,0.743 2.203,1.351 2.966,1.351c0.764,0 3.428,0.764 5.922,1.697c2.493,0.933 4.893,2.283 5.333,3c0.44,0.717 1.367,1.303 2.062,1.303c0.694,0 3.034,0.906 5.2,2.014c2.166,1.108 4.613,2.382 5.438,2.832c0.825,0.449 2.999,1.568 4.831,2.485c1.832,0.918 3.97,1.669 4.75,1.669c0.78,0 1.306,0.539 1.169,1.199c-0.139,0.665 2.542,2.177 6.024,3.397c3.451,1.21 6.826,2.645 7.5,3.189c0.674,0.545 3.251,1.288 5.726,1.653c2.475,0.365 7.2,0.916 10.5,1.225c3.3,0.309 9.729,0.012 14.288,-0.66c4.558,-0.672 8.913,-1.847 9.678,-2.612c0.765,-0.765 1.994,-1.391 2.73,-1.391c0.737,0 3.07,-1.176 5.184,-2.612c2.115,-1.437 4.582,-3.364 5.482,-4.281c0.901,-0.917 2.277,-2.892 3.057,-4.387c0.78,-1.496 1.732,-2.72 2.114,-2.72c0.382,0 1.474,-2.04 2.427,-4.533c1.313,-3.44 1.646,-6.757 1.378,-13.75c-0.276,-7.236 -0.86,-10.213 -2.716,-13.853c-1.299,-2.55 -3.321,-5.771 -4.492,-7.157c-1.172,-1.387 -2.792,-3.463 -3.601,-4.614c-0.809,-1.151 -1.774,-2.093 -2.144,-2.093c-0.37,0 -2.119,-1.35 -3.885,-3c-1.766,-1.65 -4.064,-3 -5.106,-3c-1.042,0 -1.894,-0.432 -1.894,-0.96c0,-0.528 -1.8,-1.499 -4,-2.158c-2.2,-0.659 -4,-1.519 -4,-1.911c0,-0.393 -2.354,-1.026 -5.231,-1.407c-2.877,-0.382 -5.518,-1.158 -5.868,-1.724c-0.35,-0.567 -2.271,-1.077 -4.269,-1.133c-1.998,-0.057 -3.632,-0.426 -3.632,-0.82c0,-0.393 -8.212,-0.587 -18.25,-0.431c-10.038,0.157 -19.418,0.499 -20.846,0.76c-1.427,0.261 -3.149,0.817 -3.826,1.236c-0.678,0.419 -4.01,1.124 -7.405,1.569c-3.395,0.444 -10.448,1.564 -15.673,2.489c-5.225,0.925 -9.725,2.024 -10,2.442c-0.275,0.417 -2.525,1.03 -5,1.361c-2.475,0.331 -7.65,1.056 -11.5,1.612c-3.85,0.555 -9.347,1.024 -12.215,1.042c-2.868,0.018 -7.368,-0.69 -10,-1.574c-2.632,-0.885 -6.72,-2.481 -9.085,-3.548c-2.364,-1.067 -4.524,-2.706 -4.799,-3.643c-0.275,-0.936 -1.422,-3.444 -2.55,-5.572c-1.507,-2.847 -2.077,-5.889 -2.155,-11.5c-0.093,-6.685 0.229,-8.154 2.599,-11.86c1.488,-2.327 2.705,-4.874 2.705,-5.662c0,-0.787 2.869,-4.058 6.375,-7.269c4.32,-3.957 7.946,-6.322 11.25,-7.339c3.259,-1.003 8.884,-1.479 16.971,-1.435c11.116,0.059 12.512,0.282 17.231,2.75c4.171,2.181 6.473,2.685 12.25,2.685c4.896,0 8.01,-0.529 9.988,-1.697c1.58,-0.934 3.171,-1.4 3.535,-1.036c0.364,0.364 -0.092,2.14 -1.014,3.947c-0.921,1.807 -2.474,4.636 -3.451,6.286c-0.977,1.65 -2.959,3.576 -4.403,4.279c-1.444,0.704 -4.172,3.085 -6.061,5.292c-2.875,3.359 -4.285,4.147 -8.665,4.839c-2.977,0.47 -7.014,0.428 -9.368,-0.098c-2.276,-0.508 -5.195,-1.613 -6.487,-2.456c-1.292,-0.842 -4.892,-2.409 -8,-3.481c-3.108,-1.071 -7.901,-1.971 -10.651,-1.998c-2.75,-0.027 -6.35,0.468 -8,1.1c-1.65,0.633 -4.294,2.359 -5.876,3.837c-1.582,1.477 -3.71,4.486 -4.728,6.686c-1.019,2.2 -1.862,5.177 -1.874,6.615c-0.012,1.438 0.882,3.765 1.988,5.17c1.105,1.405 4.123,3.736 6.707,5.181c4.611,2.576 4.991,2.619 20.241,2.249c10.462,-0.253 17.34,-0.909 21.042,-2.006c3.025,-0.897 7.3,-2.071 9.5,-2.608c2.2,-0.537 6.7,-1.475 10,-2.084c3.3,-0.61 10.5,-1.802 16,-2.65c7.371,-1.136 14.469,-1.406 27,-1.028c9.35,0.282 20.6,1.195 25,2.027c4.4,0.833 9.8,1.932 12,2.443c2.2,0.511 5.35,1.66 7,2.554c1.65,0.894 3.814,1.627 4.809,1.631c0.995,0.003 1.531,0.456 1.191,1.006c-0.34,0.55 -0.161,1 0.397,1c0.558,0 2.722,1.14 4.809,2.534c2.087,1.393 5.594,4.206 7.794,6.25c2.2,2.044 4.9,5.504 6,7.689c1.1,2.185 2.747,4.813 3.66,5.841c0.975,1.099 2.121,5.234 2.779,10.028c0.615,4.487 1.163,9.283 1.218,10.658c0.054,1.375 -0.459,7.675 -1.141,14c-1.129,10.469 -1.499,11.773 -4.128,14.548c-1.588,1.676 -2.888,3.408 -2.888,3.848c0,0.441 -0.726,2.332 -1.614,4.203c-0.888,1.87 -2.072,3.401 -2.633,3.401c-0.56,0 -1.859,0.969 -2.886,2.153c-1.027,1.184 -1.867,2.487 -1.867,2.895c0,0.408 -2.259,1.924 -5.02,3.367c-2.761,1.444 -5.84,3.445 -6.842,4.447c-1.264,1.264 -4.088,2.032 -9.226,2.51c-4.072,0.378 -9.431,1.598 -11.908,2.711c-2.477,1.112 -5.629,2.581 -7.004,3.264c-2.013,0.999 -2.513,2.01 -2.565,5.187c-0.036,2.171 0.295,4.401 0.735,4.956c0.44,0.556 1.95,2.447 3.356,4.204c1.407,1.756 3.258,5.252 4.116,7.768c0.857,2.516 2.377,5.013 3.378,5.549c1.001,0.535 2.369,2.665 3.041,4.731c0.671,2.067 2.732,5.447 4.58,7.511c1.853,2.07 3.359,4.838 3.359,6.173c0,1.331 1.058,3.693 2.351,5.247c1.294,1.555 2.869,3.81 3.5,5.011c0.632,1.202 1.153,3.227 1.159,4.5c0.005,1.274 1.532,4.231 3.393,6.571c1.86,2.341 3.687,5.466 4.058,6.945c0.371,1.478 2.557,5.275 4.857,8.438c2.3,3.162 4.97,5.774 5.932,5.805c0.962,0.032 1.75,0.53 1.75,1.108c0,0.578 1.463,1.664 3.25,2.413c1.788,0.749 4.341,2.526 5.674,3.949c1.334,1.423 2.905,2.587 3.491,2.587c0.587,0 4.221,1.552 8.076,3.449c3.855,1.897 9.259,3.73 12.009,4.074c2.75,0.343 6.298,0.833 7.884,1.088c1.587,0.256 4.062,1.723 5.5,3.262c1.439,1.538 3.148,2.984 3.798,3.212c0.773,0.272 1.534,5.599 2.203,15.415c0.562,8.25 1.466,17.25 2.009,20c0.543,2.75 1.005,12.65 1.026,22c0.022,9.35 -0.43,19.925 -1.004,23.5c-0.574,3.575 -1.072,9.181 -1.106,12.458c-0.033,3.277 0.404,6.113 0.973,6.303c0.568,0.189 1.3,-0.086 1.626,-0.613c0.325,-0.527 2.292,-0.73 4.37,-0.451c2.078,0.279 7.815,-0.246 12.75,-1.167c4.934,-0.921 10.826,-2.491 13.093,-3.489c2.268,-0.999 5.916,-3.436 8.109,-5.417c2.313,-2.089 5.149,-6.193 6.758,-9.779c2.443,-5.444 2.705,-6.988 2.203,-12.98c-0.409,-4.874 -1.356,-8.156 -3.344,-11.583c-1.526,-2.63 -3.128,-4.932 -3.561,-5.115c-0.433,-0.184 -0.787,-1.041 -0.787,-1.906c0,-0.865 -1.055,-2.965 -2.345,-4.667c-1.29,-1.702 -3.315,-5.698 -4.5,-8.882c-1.185,-3.183 -2.155,-7.561 -2.155,-9.729c0,-2.169 0.724,-5.752 1.609,-7.963c0.884,-2.211 1.961,-4.02 2.391,-4.02c0.431,0 1.047,-1.052 1.37,-2.338c0.323,-1.285 1.565,-3.58 2.76,-5.1c1.195,-1.52 4.089,-3.584 6.431,-4.588c2.4,-1.029 4.544,-2.731 4.916,-3.902c0.45,-1.419 2.075,-2.434 5.123,-3.202c2.455,-0.618 5.019,-1.854 5.697,-2.747c0.679,-0.893 2.127,-2.187 3.218,-2.875c1.092,-0.689 2.983,-1.685 4.204,-2.214c1.22,-0.528 2.795,-1.91 3.5,-3.07c0.704,-1.159 2.743,-2.728 4.531,-3.485c1.788,-0.757 3.25,-1.844 3.25,-2.415c0,-0.572 1.8,-2.175 4,-3.564c2.212,-1.396 4,-3.317 4,-4.297c0,-0.974 1.347,-2.568 2.994,-3.541c1.647,-0.972 3.273,-2.877 3.613,-4.231c0.34,-1.354 1.58,-3.243 2.755,-4.197c1.176,-0.954 3.021,-3.534 4.1,-5.734c1.962,-4 1.962,-4 2.5,0.5c0.296,2.475 0.077,13.353 -0.487,24.172c-0.779,14.968 -1.387,20.11 -2.543,21.5c-0.835,1.006 -2.107,3.009 -2.827,4.452c-0.794,1.593 -1.366,6.787 -1.456,13.222c-0.149,10.599 -0.149,10.599 4.808,15.36c2.727,2.619 7.002,5.742 9.5,6.941c2.499,1.199 8.049,5.561 12.334,9.694c7.385,7.123 7.84,7.817 8.744,13.337c0.524,3.202 0.947,9.197 0.939,13.322c-0.008,4.125 -0.434,10.407 -0.948,13.961c-0.625,4.324 -1.564,6.97 -2.841,8c-1.049,0.846 -2.742,3.001 -3.762,4.789c-1.02,1.788 -2.422,3.25 -3.116,3.25c-0.693,0 -2.013,1.148 -2.932,2.551c-0.92,1.403 -3.068,3.27 -4.773,4.149c-1.706,0.879 -3.634,2.35 -4.283,3.27c-0.65,0.92 -2.96,2.205 -5.133,2.856c-2.768,0.829 -5.355,2.826 -8.635,6.666c-2.576,3.015 -5.078,6.858 -5.561,8.541c-0.482,1.683 -1.173,7.202 -1.535,12.264c-0.362,5.061 -1.062,9.631 -1.556,10.153c-0.566,0.598 -1.301,0.548 -1.983,-0.134c-0.597,-0.597 -2.509,-3.925 -4.25,-7.396c-2.939,-5.858 -3.703,-6.599 -10.666,-10.34c-7.5,-4.029 -7.5,-4.029 -60.5,-4.803c-34.757,-0.507 -58.622,-0.411 -69.333,0.28c-8.984,0.58 -43.276,1.227 -76.206,1.439c-41.947,0.271 -60.505,0.725 -61.986,1.517c-1.162,0.622 -4.67,3.433 -7.794,6.247c-3.125,2.814 -6.983,6.866 -8.574,9.005c-1.993,2.678 -3.131,3.506 -3.655,2.657c-0.579,-0.936 -1.871,-0.71 -5.378,0.938c-2.539,1.194 -6.777,2.634 -9.418,3.2c-3.167,0.679 -6.266,0.701 -9.102,0.063c-2.365,-0.531 -4.92,-0.728 -5.677,-0.437c-0.757,0.29 -1.377,1.175 -1.377,1.965c0,0.79 -0.563,1.337 -1.25,1.216c-0.688,-0.121 -6.2,0.093 -12.25,0.476c-6.05,0.382 -13.475,1.191 -16.5,1.797c-3.025,0.605 -5.82,1.607 -6.211,2.226c-0.479,0.759 -1.16,0.509 -2.097,-0.772c-0.874,-1.196 -1.63,-1.503 -2.046,-0.831c-0.362,0.587 -1.099,7.517 -1.638,15.402c-0.538,7.884 -0.992,24.01 -1.008,35.835c-0.017,11.872 -0.458,22.172 -0.985,23c-0.786,1.236 -1.308,1.28 -2.971,0.25c-1.109,-0.687 -2.248,-1.25 -2.53,-1.25c-0.283,0 -0.514,0.675 -0.514,1.5c0,1.014 -1.015,1.5 -3.135,1.5c-2.12,0 -3.983,-0.891 -5.75,-2.75c-2.615,-2.75 -2.615,-2.75 -2.942,0.109c-0.327,2.858 -0.327,2.858 -7.232,2.468c-3.797,-0.215 -7.4,-0.886 -8.005,-1.491c-0.737,-0.737 -1.197,-10.803 -1.393,-30.468c-0.279,-28.066 -0.398,-29.656 -2.673,-35.868c-2.382,-6.5 -2.382,-6.5 -8.833,-6.8c-3.549,-0.164 -6.921,-0.668 -7.494,-1.118c-0.574,-0.451 -4.742,-1.407 -9.263,-2.126c-6.02,-0.957 -9.366,-1.028 -12.5,-0.264c-2.354,0.573 -5.18,1.363 -6.28,1.755c-1.399,0.499 -1.099,-0.06 1,-1.862c1.65,-1.416 2.775,-2.596 2.5,-2.622c-0.275,-0.026 -4.36,-0.185 -9.078,-0.353c-6.55,-0.233 -9.86,-0.893 -14.004,-2.79c-2.984,-1.366 -5.924,-2.318 -6.533,-2.115c-0.608,0.203 -1.904,-0.885 -2.88,-2.418c-0.975,-1.533 -4.075,-4.954 -6.889,-7.602c-2.814,-2.648 -6.466,-5.684 -8.116,-6.746c-2.829,-1.821 -5.153,-1.932 -40.678,-1.935c-20.722,-0.002 -40.972,0.429 -45,0.959c-4.027,0.53 -34.026,1.207 -66.664,1.504c-32.638,0.298 -60.538,0.84 -62,1.206c-1.462,0.366 -4.008,1.488 -5.658,2.492c-1.65,1.005 -3.261,1.829 -3.579,1.831c-0.319,0.002 -0.544,-0.986 -0.5,-2.196c0.048,-1.351 -0.821,-2.656 -2.255,-3.384c-1.284,-0.652 -3.215,-0.954 -4.29,-0.673c-1.076,0.281 -2.625,1.804 -3.442,3.384c-0.817,1.58 -1.867,2.873 -2.334,2.873c-0.466,0 -2.825,-1.105 -5.242,-2.456c-3.68,-2.057 -5.88,-2.483 -13.549,-2.622c-7.996,-0.146 -9.548,0.112 -12.254,2.039c-1.704,1.213 -3.763,3.798 -4.576,5.744c-0.814,1.947 -1.479,6.409 -1.479,9.917c0,6.121 -0.1,6.378 -2.478,6.378c-1.363,0 -5.751,-1.525 -9.75,-3.389c-4,-1.864 -12.222,-5.633 -18.272,-8.377c-6.05,-2.743 -15.9,-6.93 -21.888,-9.303c-5.989,-2.374 -12.285,-5.258 -13.993,-6.409c-1.708,-1.151 -3.245,-2.82 -3.417,-3.71c-0.217,-1.131 2.946,-3.564 10.493,-8.07c5.943,-3.549 12.155,-7.112 13.805,-7.918c1.65,-0.806 6.375,-3.293 10.5,-5.528c4.125,-2.234 12.578,-6.615 18.784,-9.736c7.489,-3.765 11.947,-5.463 13.253,-5.048c1.777,0.564 1.952,1.469 1.8,9.306c-0.092,4.775 0.127,9.583 0.487,10.685c0.393,1.203 2.25,2.501 4.649,3.25c2.198,0.686 7.265,1.238 11.261,1.226c5.259,-0.015 9.199,-0.727 14.266,-2.577c3.85,-1.406 7.772,-2.795 8.716,-3.087c1.51,-0.467 1.646,0.057 1.134,4.376c-0.581,4.906 -0.581,4.906 2.955,5.006c2.507,0.071 4.18,-0.584 5.745,-2.25c1.442,-1.535 2.015,-3.089 1.652,-4.478c-0.452,-1.73 -0.243,-1.973 1.121,-1.303c0.922,0.453 35.652,0.97 77.177,1.15c41.525,0.179 78.826,0.024 82.891,-0.344c6.77,-0.613 7.699,-0.976 11.047,-4.321c2.01,-2.008 4.724,-6.013 6.03,-8.901c1.305,-2.888 2.747,-5.25 3.203,-5.25c0.456,0 0.829,0.243 0.829,0.54c0,0.297 -0.9,2.304 -2,4.46c-1.1,2.156 -2,4.868 -2,6.026c0,1.158 -0.475,2.993 -1.055,4.078c-0.581,1.084 -0.776,2.855 -0.433,3.934c0.431,1.358 1.52,1.962 3.536,1.962c2.218,0 3.024,-0.537 3.375,-2.25c0.254,-1.237 0.742,-4.05 1.084,-6.25c0.342,-2.2 1.53,-5.905 2.639,-8.234c1.665,-3.494 2.746,-4.444 6.186,-5.431c2.292,-0.657 4.38,-1.364 4.639,-1.57c0.259,-0.205 -0.191,-0.792 -1,-1.304c-0.809,-0.512 -2.977,-0.937 -4.817,-0.946c-1.84,-0.008 -4.652,0.916 -6.25,2.053c-1.597,1.138 -2.894,1.7 -2.882,1.25c0.012,-0.45 0.8,-1.782 1.75,-2.96c0.951,-1.178 3.168,-2.866 4.928,-3.75c2.141,-1.076 5.843,-1.608 11.184,-1.608c7.984,0 7.984,0 13.55,-5.478c3.061,-3.013 5.566,-5.888 5.566,-6.39c0,-0.501 1.556,-2.648 3.459,-4.772c1.947,-2.174 3.951,-5.826 4.587,-8.36c0.62,-2.475 1.625,-7.087 2.231,-10.25c0.808,-4.208 0.805,-7.292 -0.012,-11.5c-0.614,-3.163 -1.63,-8.225 -2.259,-11.25c-0.629,-3.025 -2.221,-7.075 -3.538,-9c-1.317,-1.926 -3.029,-6.531 -3.806,-10.235c-0.776,-3.703 -2.196,-7.931 -3.155,-9.394c-0.959,-1.464 -2.363,-5.633 -3.121,-9.266c-0.757,-3.633 -2.99,-9.98 -4.962,-14.105c-1.971,-4.125 -4.863,-10.2 -6.425,-13.5c-1.563,-3.3 -3.541,-7.894 -4.396,-10.21c-0.855,-2.315 -3.107,-6.243 -5.005,-8.73c-1.898,-2.486 -3.739,-5.429 -4.092,-6.54c-0.352,-1.111 -1.488,-2.02 -2.523,-2.02c-1.036,0 -3.93,-1.382 -6.433,-3.071c-2.502,-1.689 -4.55,-3.468 -4.55,-3.953c0,-0.485 -1.604,-1.643 -3.565,-2.574c-1.96,-0.93 -5.11,-3.716 -7,-6.19c-1.889,-2.475 -3.435,-4.908 -3.435,-5.407c0,-0.499 -1.561,-1.559 -3.468,-2.356c-1.907,-0.797 -5.936,-1.449 -8.953,-1.449c-5.485,0 -5.485,0 -7.586,-4.75c-1.155,-2.612 -3.119,-5.875 -4.364,-7.25c-1.246,-1.375 -3.052,-3.767 -4.013,-5.316c-0.962,-1.549 -2.506,-3.751 -3.432,-4.893c-0.926,-1.142 -3,-3.624 -4.609,-5.515c-1.609,-1.892 -4.002,-5.764 -5.319,-8.604c-1.316,-2.841 -2.944,-5.842 -3.617,-6.669c-0.674,-0.827 -1.732,-3.078 -2.352,-5.003c-0.619,-1.925 -1.438,-5.475 -1.818,-7.89c-0.381,-2.414 -1.767,-6.53 -3.081,-9.145c-1.313,-2.616 -2.388,-5.675 -2.388,-6.798c0,-1.124 0.632,-4.883 1.404,-8.355c0.772,-3.472 1.699,-12.634 2.06,-20.362c0.361,-7.727 1.054,-15.814 1.541,-17.972c0.486,-2.157 0.664,-4.142 0.394,-4.412c-0.269,-0.27 -1.363,0.055 -2.431,0.722c-1.067,0.667 -2.172,1.212 -2.454,1.212c-0.283,0 -0.514,-2.722 -0.514,-6.05c0,-3.327 0.645,-7.297 1.434,-8.822c0.789,-1.526 2.139,-3.358 3,-4.073c0.861,-0.715 1.566,-2.049 1.566,-2.965c0,-0.916 1.332,-3.224 2.959,-5.128c1.628,-1.904 2.978,-3.943 3,-4.531c0.023,-0.588 3.482,-4.863 7.688,-9.5c4.206,-4.637 8.48,-9.781 9.497,-11.431c1.017,-1.65 1.85,-4.632 1.852,-6.628c0.002,-2.088 -0.666,-4.183 -1.574,-4.937c-1.312,-1.089 -3.401,-0.941 -12.376,0.878c-7.026,1.423 -14.421,2.183 -21.172,2.177c-8.108,-0.008 -11.727,0.465 -16.571,2.166c-5.123,1.799 -6.466,1.953 -7.75,0.888c-1.045,-0.867 -1.553,-3.015 -1.553,-6.56c0,-2.9 -0.477,-9.932 -1.059,-15.628c-0.899,-8.788 -1.429,-10.743 -3.5,-12.911c-1.343,-1.405 -2.441,-2.915 -2.441,-3.355c0,-0.441 -1.113,-2.124 -2.474,-3.741c-1.36,-1.617 -2.972,-4.791 -3.581,-7.054c-0.609,-2.262 -0.829,-5.598 -0.489,-7.413c0.453,-2.416 1.749,-4.059 4.832,-6.129c2.541,-1.707 4.212,-3.603 4.212,-4.778c0,-1.301 -1.442,-2.667 -4.334,-4.106c-4.334,-2.157 -4.334,-2.157 0.136,-5.233c2.459,-1.691 6.786,-3.988 9.617,-5.104c2.83,-1.116 6.144,-2.654 7.363,-3.419c1.22,-0.764 4.018,-1.961 6.218,-2.658c2.2,-0.697 5.608,-2.329 7.573,-3.627c1.965,-1.297 5.79,-4.906 8.5,-8.018c2.71,-3.113 5.659,-6.744 6.553,-8.07c0.894,-1.326 3.066,-3.287 4.826,-4.357c1.759,-1.07 6.087,-2.551 9.617,-3.291c3.653,-0.765 7.869,-2.451 9.784,-3.912c1.851,-1.412 4.208,-4.28 5.238,-6.374c1.108,-2.251 1.88,-5.983 1.891,-9.137c0.014,-4.108 -0.42,-5.651 -1.894,-6.728c-1.104,-0.807 -3.005,-1.158 -4.5,-0.831c-1.423,0.312 -4.742,1.244 -7.375,2.071c-2.633,0.828 -5.48,1.238 -6.328,0.913c-1.302,-0.5 -1.181,-1.045 0.788,-3.537c1.28,-1.62 2.823,-2.971 3.429,-3.002c0.606,-0.03 2.514,-1.405 4.241,-3.055c3.05,-2.915 3.416,-3 12.925,-3c7.515,0 10.339,0.387 12.166,1.666c2.268,1.589 2.464,1.561 4.222,-0.611c1.014,-1.252 1.844,-3.331 1.844,-4.619c0,-1.855 0.78,-2.559 3.75,-3.383c2.062,-0.573 4.2,-0.992 4.75,-0.931c0.55,0.06 1.9,0.328 3,0.594M941.0963,372.714c-0.222,0.667 -3.522,3.137 -7.333,5.489c-3.811,2.351 -10.079,5.219 -13.929,6.373c-3.85,1.154 -8.013,2.745 -9.25,3.534c-1.237,0.79 -2.25,1.817 -2.25,2.282c0,0.466 1.59,1.104 3.532,1.42c1.947,0.315 5.651,-0.07 8.25,-0.859c2.595,-0.787 5.28,-1.436 5.968,-1.442c0.687,-0.006 1.25,0.375 1.25,0.847c0,0.472 -2.292,2.047 -5.092,3.5c-3.85,1.998 -6.558,2.642 -11.099,2.642c-3.468,0 -7.451,-0.685 -9.424,-1.622c-1.88,-0.891 -3.682,-2.05 -4.006,-2.574c-0.324,-0.523 0.443,-2.05 1.703,-3.391c1.466,-1.56 1.945,-2.786 1.331,-3.4c-0.529,-0.529 -2.725,-1.572 -4.881,-2.318c-2.156,-0.747 -4.086,-1.858 -4.29,-2.47c-0.204,-0.612 1.57,-1.59 3.943,-2.172c2.373,-0.582 5.589,-1.732 7.146,-2.556c1.557,-0.823 3.245,-1.497 3.75,-1.497c0.505,0 0.919,0.527 0.919,1.171c0,0.644 -0.788,2.061 -1.75,3.149c-1.728,1.952 -1.666,1.969 4.951,1.37c3.685,-0.333 9.31,-1.359 12.5,-2.28c3.189,-0.92 8.021,-2.739 10.736,-4.042c2.716,-1.302 5.566,-2.368 6.333,-2.368c0.768,0 1.215,0.546 0.992,1.214M962.9163,377.469c1.144,0.463 3.329,2.325 4.855,4.139c2.47,2.935 2.729,3.916 2.365,8.95c-0.306,4.236 -1.236,6.944 -3.71,10.798c-2.067,3.222 -4.009,5.144 -5.196,5.144c-1.193,0 -1.896,-0.701 -1.896,-1.891c0,-1.04 0.89,-3.852 1.978,-6.25c1.088,-2.397 1.988,-5.626 2,-7.175c0.012,-1.548 -0.444,-3.686 -1.013,-4.75c-0.62,-1.157 -2.089,-1.934 -3.658,-1.934c-1.443,0 -6.49,1.75 -11.215,3.889c-4.726,2.139 -9.802,4.166 -11.281,4.504c-1.498,0.342 -2.979,0.144 -3.344,-0.447c-0.361,-0.583 0.869,-2.497 2.734,-4.253c1.864,-1.756 4.719,-4.22 6.344,-5.476c1.625,-1.255 5.815,-3.168 9.31,-4.25c3.496,-1.082 7.096,-1.938 8,-1.904c0.905,0.035 2.582,0.443 3.727,0.906M868.0843,393.221c0.687,0.245 1.25,1.24 1.25,2.211c0,1.13 1.438,2.329 4.001,3.336c2.2,0.864 4.286,2.318 4.636,3.229c0.35,0.912 -0.017,2.312 -0.816,3.111c-0.799,0.799 -5.164,2.339 -9.7,3.422c-4.536,1.084 -8.659,1.97 -9.161,1.97c-0.503,0 -1.662,-1.142 -2.576,-2.537c-1.57,-2.396 -1.554,-2.661 0.292,-4.75c1.075,-1.217 2.717,-3.441 3.649,-4.942c0.932,-1.501 2.927,-3.352 4.434,-4.113c1.508,-0.761 3.303,-1.183 3.991,-0.937M912.3343,405.378c0,0.482 -0.675,1.437 -1.5,2.122c-0.825,0.685 -1.5,1.804 -1.5,2.488c0,0.82 2.297,1.409 6.75,1.73c4.582,0.33 8.436,1.342 12,3.151c2.888,1.466 5.25,3.142 5.25,3.725c0,0.726 -3.856,0.84 -12.276,0.36c-10.865,-0.619 -12.438,-0.504 -13.685,1c-1.215,1.463 -1.211,1.824 0.025,2.607c0.79,0.5 3.558,0.915 6.152,0.924c2.594,0.008 6.315,0.777 8.269,1.709c1.954,0.932 3.386,2.169 3.182,2.75c-0.203,0.581 -1.449,0.976 -2.768,0.879c-1.32,-0.097 -5.174,-0.493 -8.565,-0.88c-3.391,-0.386 -7.329,-0.41 -8.75,-0.053c-1.421,0.356 -2.584,1.057 -2.584,1.557c0,0.5 2.587,1.871 5.75,3.047c3.163,1.176 6.763,2.793 8,3.595c1.237,0.801 2.25,1.897 2.25,2.434c0,0.537 -0.686,0.977 -1.525,0.977c-0.839,0 -4.086,-0.9 -7.215,-2c-3.13,-1.1 -8.204,-2 -11.275,-2c-3.072,0 -6.104,0.519 -6.738,1.153c-0.784,0.784 -0.842,1.735 -0.182,2.969c0.535,0.998 2.992,2.999 5.46,4.446c2.469,1.446 5.989,4.383 7.823,6.526c2.106,2.46 4.095,6.502 5.398,10.969c1.774,6.079 1.857,7.152 0.592,7.638c-0.81,0.31 -1.832,0.167 -2.271,-0.318c-0.439,-0.486 -2.229,-3.583 -3.978,-6.883c-1.749,-3.3 -4.309,-7.013 -5.69,-8.25c-1.381,-1.237 -3.385,-2.25 -4.455,-2.25c-1.069,0 -1.944,0.262 -1.944,0.582c0,0.32 1.516,2.457 3.368,4.75c1.852,2.292 3.855,5.109 4.45,6.259c0.595,1.15 1.773,4.075 2.618,6.5c0.844,2.425 1.541,5.197 1.549,6.159c0.009,1.084 -0.741,1.75 -1.971,1.75c-1.431,0 -2.87,-1.746 -5.154,-6.25c-1.743,-3.437 -3.354,-5.712 -3.579,-5.055c-0.226,0.657 0.11,2.167 0.747,3.357c0.806,1.506 0.839,2.481 0.111,3.209c-0.729,0.729 -2.129,0.221 -4.611,-1.672c-1.991,-1.518 -4.907,-5.379 -6.606,-8.744c-2.239,-4.436 -2.874,-6.789 -2.405,-8.923c0.35,-1.594 1.75,-3.773 3.11,-4.843c1.36,-1.07 2.987,-2.117 3.616,-2.327c0.701,-0.233 0.102,-1.745 -1.55,-3.911c-1.481,-1.941 -2.693,-4.128 -2.693,-4.86c0,-0.732 4.112,-5.258 9.138,-10.06c8.853,-8.458 9.153,-8.89 9.636,-13.923c0.432,-4.49 0.921,-5.451 3.613,-7.092c1.712,-1.044 3.901,-1.9 4.863,-1.902c0.962,-0.002 1.75,0.391 1.75,0.874M840.3343,456.633c3.575,1.098 8.525,2.717 11,3.599c2.475,0.882 5.994,3.089 7.819,4.905c2.472,2.459 3.238,4.012 3,6.082c-0.268,2.339 -0.846,2.832 -3.633,3.099c-2.706,0.26 -4.108,-0.413 -7.636,-3.665c-2.377,-2.191 -5.7,-4.697 -7.386,-5.568c-1.686,-0.872 -3.65,-1.596 -4.364,-1.61c-0.715,-0.013 -3.454,-1.605 -6.087,-3.536c-2.632,-1.931 -4.518,-3.945 -4.191,-4.475c0.328,-0.53 1.582,-0.933 2.787,-0.895c1.205,0.037 5.116,0.966 8.691,2.064M1012.4633,522.486c1.996,1.066 4.789,3.316 6.207,5.001c1.418,1.685 3.354,5.528 4.304,8.539c0.949,3.011 2.058,5.474 2.465,5.474c0.407,0 1.25,-1.547 1.874,-3.437c0.69,-2.09 0.871,-5.763 0.463,-9.37c-0.475,-4.203 -0.317,-6.152 0.543,-6.684c0.692,-0.427 2.356,0.168 3.865,1.382c1.457,1.172 5.018,3.348 7.912,4.834c2.894,1.487 5.098,3.169 4.899,3.739c-0.2,0.57 -1.218,0.998 -2.262,0.952c-1.045,-0.045 -3.285,-0.402 -4.978,-0.791c-2.916,-0.671 -3.141,-0.502 -4.248,3.192c-0.643,2.145 -3.146,6.024 -5.562,8.619c-3.488,3.745 -4.952,4.65 -7.098,4.391c-2.454,-0.297 -2.73,-0.756 -2.99,-4.973c-0.19,-3.078 -1.38,-6.474 -3.527,-10.065c-1.783,-2.98 -4.776,-6.47 -6.652,-7.755c-1.875,-1.285 -3.247,-2.831 -3.049,-3.435c0.199,-0.605 1.226,-1.201 2.283,-1.325c1.057,-0.124 3.555,0.646 5.551,1.712M990.9593,533.176c0.341,1.003 1.957,4.81 3.592,8.46c1.636,3.649 2.813,7.469 2.617,8.488c-0.196,1.019 -1.027,1.971 -1.845,2.115c-0.819,0.145 -2.482,-1.167 -3.697,-2.914c-2.207,-3.178 -2.207,-3.178 -3.25,-0.436c-0.573,1.508 -1.041,5.749 -1.041,9.426c0.001,3.677 0.676,10.51 1.499,15.185c0.823,4.675 1.488,10.525 1.478,13c-0.011,2.475 -1.044,8.413 -2.295,13.196c-1.655,6.329 -3.01,9.378 -4.979,11.202c-1.487,1.379 -2.704,2.978 -2.704,3.554c0,0.577 -0.942,1.048 -2.094,1.048c-1.934,0 -2.042,-0.376 -1.413,-4.947c0.467,-3.4 0.165,-6.76 -0.967,-10.75c-0.906,-3.191 -3.281,-8.212 -5.279,-11.156c-3.632,-5.352 -3.632,-5.352 -4.864,0.5c-0.678,3.219 -1.874,7.653 -2.658,9.853c-0.983,2.758 -2.015,4 -3.322,4c-1.401,0 -2.419,-1.479 -3.907,-5.675c-1.107,-3.121 -2.347,-6.009 -2.754,-6.417c-0.408,-0.408 -0.742,-2.255 -0.742,-4.106c0,-2.209 0.569,-3.583 1.656,-4c1.059,-0.407 2.32,0.185 3.5,1.642c1.363,1.684 1.844,1.871 1.844,0.718c0,-0.857 -1.087,-5.069 -2.416,-9.36c-1.329,-4.291 -2.713,-10.103 -3.076,-12.916c-0.533,-4.139 -0.359,-5.229 0.913,-5.717c1.127,-0.433 2.177,0.591 3.708,3.614c1.176,2.319 3.525,6.017 5.222,8.217c1.696,2.2 5.636,6.925 8.756,10.5c3.119,3.575 6.662,8.075 7.873,10c2.202,3.5 2.202,3.5 1.362,-9c-0.462,-6.875 -0.762,-16.325 -0.667,-21c0.126,-6.236 0.96,-11.031 3.128,-18c1.979,-6.362 3.492,-9.607 4.579,-9.824c0.893,-0.178 1.903,0.497 2.243,1.5M944.8753,602.25c0.415,0.962 0.967,7.511 1.227,14.552c0.284,7.715 0.004,15.265 -0.704,19c-0.647,3.409 -2.334,9.348 -3.749,13.198c-1.416,3.85 -3.187,7.656 -3.937,8.457c-0.921,0.984 -1.693,1.128 -2.376,0.445c-0.684,-0.684 -0.545,-2.457 0.428,-5.458c0.793,-2.444 1.829,-9.394 2.302,-15.444c0.473,-6.05 0.776,-13.746 0.674,-17.103c-0.103,-3.357 0.254,-8.532 0.792,-11.5c0.539,-2.968 1.444,-5.959 2.013,-6.647c0.569,-0.687 1.381,-1.25 1.804,-1.25c0.424,0 1.111,0.788 1.526,1.75M1020.8173,669.182c1.934,2.533 3.517,5.432 3.517,6.442c0,1.011 -1.55,4.259 -3.443,7.22c-1.894,2.961 -4.482,8.257 -5.75,11.769c-2.092,5.791 -2.314,8.16 -2.377,25.387c-0.061,16.522 -0.277,19.039 -1.657,19.305c-1.213,0.234 -1.955,-1.311 -3.147,-6.55c-0.857,-3.771 -1.997,-10.711 -2.533,-15.423c-0.74,-6.512 -0.647,-10.125 0.387,-15.064c0.747,-3.574 3.02,-9.822 5.051,-13.883c2.03,-4.062 4.346,-8.129 5.148,-9.038c1.276,-1.449 1.262,-2.305 -0.112,-6.932c-0.862,-2.903 -1.567,-5.598 -1.567,-5.99c0,-0.391 0.667,-0.967 1.483,-1.28c0.966,-0.371 2.71,1.037 5,4.037M1165.2213,698.608c10.205,3.736 17.561,5.884 19.5,5.695c2.415,-0.235 3.434,-1.031 4.543,-3.553c0.787,-1.788 2.057,-3.25 2.822,-3.25c0.765,0 1.921,0.571 2.569,1.268c0.649,0.698 1.942,2.638 2.874,4.312c0.932,1.673 2.428,6.266 3.325,10.206c0.896,3.94 1.344,7.625 0.995,8.189c-0.348,0.564 -1.394,1.023 -2.324,1.021c-0.93,-0.002 -3.098,-0.861 -4.818,-1.91c-1.719,-1.048 -6.219,-3.605 -10,-5.681c-3.78,-2.077 -11.598,-6.129 -17.373,-9.006c-5.775,-2.876 -13.087,-6.368 -16.25,-7.759c-3.45,-1.518 -5.75,-3.152 -5.75,-4.085c0,-0.855 0.788,-1.53 1.75,-1.5c0.962,0.031 9.124,2.755 18.137,6.053M1125.8723,698.181c0.804,0.804 1.462,2.235 1.462,3.18c0,0.945 0.688,4.361 1.529,7.59c0.841,3.229 2.164,6.361 2.939,6.96c0.774,0.599 1.937,4.014 2.583,7.589c0.646,3.575 1.836,8.413 2.644,10.75c0.809,2.337 1.872,4.25 2.362,4.25c0.49,0 1.597,1.363 2.458,3.029c0.862,1.667 1.32,3.429 1.019,3.916c-0.302,0.488 -0.075,2.131 0.503,3.651c0.578,1.52 2.185,3.899 3.572,5.286c1.387,1.387 2.766,3.743 3.065,5.236c0.298,1.494 1.844,3.962 3.434,5.486c1.659,1.589 2.892,3.822 2.892,5.237c0,1.357 1.574,5.281 3.497,8.72c1.923,3.439 4.222,9.084 5.109,12.544c1.014,3.961 1.382,7.966 0.992,10.81c-0.34,2.485 -1.74,6.212 -3.11,8.283c-1.37,2.07 -4.403,5.514 -6.739,7.654c-2.337,2.14 -8.112,7.064 -12.833,10.942c-4.721,3.879 -11.515,8.436 -15.097,10.129c-3.582,1.692 -7.819,3.057 -9.416,3.032c-1.597,-0.025 -4.235,-0.614 -5.864,-1.308c-2.602,-1.11 -3.545,-0.981 -7.789,1.066c-2.656,1.282 -5.021,2.883 -5.255,3.558c-0.234,0.676 -0.592,3.072 -0.795,5.324c-0.203,2.252 -1.118,5.164 -2.034,6.472c-0.917,1.308 -1.734,1.94 -1.816,1.406c-0.083,-0.535 -0.42,1.052 -0.75,3.527c-0.6,4.5 -0.6,4.5 -40.887,4.568c-28.191,0.047 -40.158,-0.253 -39.857,-1c0.236,-0.587 2.697,-6.468 5.469,-13.068c2.772,-6.6 5.325,-13.737 5.674,-15.861c0.435,-2.65 1.24,-4.019 2.567,-4.367c1.064,-0.278 1.964,-0.79 2.001,-1.139c0.038,-0.348 0.265,-2.208 0.506,-4.133c0.24,-1.925 1.496,-5.555 2.789,-8.067c1.466,-2.847 2.288,-6.049 2.182,-8.5c-0.094,-2.163 -0.552,-3.708 -1.018,-3.433c-0.466,0.275 -1.416,-1.075 -2.111,-3c-0.694,-1.925 -1.297,-4.995 -1.339,-6.821c-0.042,-1.827 -0.639,-3.949 -1.326,-4.716c-0.688,-0.766 -1.904,-2.163 -2.703,-3.103c-1.108,-1.304 -1.645,-6.719 -2.26,-22.785c-0.465,-12.153 -0.42,-24.65 0.108,-29.519c0.651,-6.007 1.404,-8.802 2.61,-9.683c0.933,-0.682 1.418,-1.689 1.079,-2.237c-0.339,-0.549 -0.204,-1.253 0.299,-1.564c0.504,-0.311 1.468,-2.93 2.144,-5.819c0.675,-2.889 1.915,-6.041 2.755,-7.003c1.276,-1.461 3.283,-1.75 12.167,-1.75c7.871,0 14.531,-0.786 25.595,-3.021c8.226,-1.662 18.556,-3.672 22.956,-4.467c4.4,-0.795 10.25,-2.157 13,-3.025c2.75,-0.869 7.83,-1.735 11.288,-1.924c4.55,-0.249 6.692,0.06 7.75,1.118M1218.3623,744.855c1.941,0.63 5.759,2.463 8.485,4.074c2.726,1.612 5.413,3.321 5.971,3.798c0.559,0.477 2.591,1.739 4.516,2.803c1.925,1.065 7.661,3.969 12.746,6.453c5.086,2.484 9.828,4.517 10.539,4.517c0.711,0 3.057,0.9 5.215,2c2.157,1.1 8.621,3.176 14.363,4.614c8.548,2.14 12.569,2.592 22.19,2.493c6.463,-0.067 14.105,-0.568 16.982,-1.114c3.961,-0.751 6.351,-0.654 9.848,0.4c2.539,0.765 6.932,2.565 9.762,3.999c2.83,1.435 5.673,2.608 6.317,2.608c0.644,0 2.739,1.195 4.654,2.656c1.916,1.462 4.64,4.63 6.053,7.042c2.475,4.224 2.551,4.833 2.061,16.593c-0.436,10.44 -0.929,13.243 -3.405,19.348c-1.593,3.927 -3.373,7.752 -3.955,8.5c-0.583,0.749 -1.339,2.146 -1.681,3.105c-0.342,0.96 -2.099,2.648 -3.905,3.752c-1.806,1.104 -3.789,1.818 -4.406,1.586c-0.617,-0.231 -3.132,-0.723 -5.589,-1.091c-3.412,-0.512 -4.843,-0.294 -6.057,0.92c-0.874,0.874 -2.184,1.591 -2.911,1.593c-0.726,0.002 -2.811,0.912 -4.631,2.022c-1.821,1.11 -3.958,3.568 -4.75,5.464c-0.792,1.895 -1.441,4.698 -1.442,6.228c0,1.53 -0.788,4.33 -1.75,6.221c-1.142,2.247 -2.614,3.573 -4.248,3.827c-1.375,0.214 -31.3,0.241 -66.5,0.061c-35.2,-0.18 -69.963,-0.327 -77.251,-0.327c-9.641,0 -13.25,-0.327 -13.25,-1.2c0.001,-0.66 0.611,-1.56 1.357,-2c0.746,-0.44 2.146,-2.486 3.112,-4.546c0.966,-2.06 3.618,-5.081 5.894,-6.713c2.276,-1.633 4.682,-3.434 5.346,-4.004c0.664,-0.571 1.436,-1.037 1.716,-1.037c0.28,0 4.988,-2.849 10.463,-6.332c5.475,-3.482 12.274,-8.095 15.109,-10.25c2.835,-2.155 6.921,-6.557 9.079,-9.782c2.159,-3.225 3.981,-6.488 4.05,-7.25c0.069,-0.762 0.162,-1.948 0.207,-2.636c0.046,-0.687 -0.519,-3.05 -1.255,-5.25c-0.736,-2.2 -1.669,-4.45 -2.075,-5c-0.406,-0.55 -1.504,-3.351 -2.441,-6.224c-1.26,-3.86 -1.595,-7.514 -1.285,-14c0.231,-4.827 0.965,-11.926 1.631,-15.776c0.666,-3.85 1.907,-9.25 2.758,-12c0.85,-2.75 2.647,-6.462 3.992,-8.25c1.345,-1.788 2.984,-3.203 3.644,-3.145c0.659,0.058 2.787,0.62 4.727,1.25M1013.7843,779.75c0.212,0.688 0.611,4.702 0.885,8.921c0.394,6.066 1.248,9.25 4.082,15.221c1.971,4.153 3.583,8.435 3.583,9.515c0,1.081 -2.034,4.806 -4.52,8.279c-2.486,3.473 -6.475,10.364 -8.864,15.314c-2.389,4.95 -4.919,10.8 -5.621,13c-0.702,2.2 -2.554,6.7 -4.116,10c-1.561,3.3 -3.728,7.441 -4.815,9.201c-1.086,1.761 -3.386,3.931 -5.11,4.823c-1.724,0.891 -3.739,1.389 -4.478,1.105c-0.987,-0.379 -0.043,-2.848 3.566,-9.322c2.701,-4.844 7.804,-15.215 11.342,-23.046c3.537,-7.832 7.923,-16.157 9.746,-18.5c1.823,-2.344 4.372,-5.203 5.664,-6.355c2.35,-2.093 2.35,-2.093 -0.565,-6.5c-1.602,-2.423 -3.71,-7.316 -4.684,-10.872c-1.213,-4.431 -1.576,-8.11 -1.156,-11.689c0.338,-2.873 1.052,-6.375 1.588,-7.784c0.535,-1.409 1.449,-2.561 2.03,-2.561c0.581,0 1.23,0.563 1.443,1.25M1114.8383,851.507c0.343,0.554 0.032,1.191 -0.691,1.417c-0.722,0.225 -2.545,0.679 -4.05,1.008c-1.506,0.33 -3.512,1.781 -4.458,3.226c-1.111,1.695 -1.736,4.685 -1.763,8.434c-0.023,3.195 -0.556,6.323 -1.185,6.951c-0.857,0.858 -1.795,0.716 -3.75,-0.565c-2.003,-1.312 -2.607,-2.535 -2.607,-5.277c0,-1.963 0.939,-5.51 2.087,-7.881c1.148,-2.372 3.234,-5.214 4.635,-6.316c1.654,-1.301 4.059,-2.004 6.854,-2.004c2.368,0 4.586,0.453 4.928,1.007M1346.3343,853.551c0,0.578 -1.544,1.696 -3.432,2.485c-1.887,0.788 -3.8,2.003 -4.25,2.699c-0.45,0.696 -1.043,5.315 -1.318,10.265c-0.462,8.307 -0.668,9.024 -2.682,9.311c-1.438,0.204 -2.589,-0.449 -3.373,-1.914c-0.72,-1.345 -0.978,-4.285 -0.653,-7.433c0.295,-2.865 1.433,-6.954 2.527,-9.086c1.095,-2.133 3.34,-4.666 4.99,-5.628c1.65,-0.962 4.168,-1.75 5.595,-1.75c1.428,0 2.596,0.473 2.596,1.051M690.3233,869.987c0.761,0.917 0.966,2.547 0.535,4.25c-0.384,1.52 -1.096,5.185 -1.581,8.146c-0.647,3.949 -0.455,7.496 0.718,13.32c1.136,5.637 1.289,8.247 0.529,9.007c-0.76,0.76 -3.675,-0.169 -10.061,-3.203c-4.946,-2.351 -9.686,-4.007 -10.534,-3.682c-0.848,0.326 -1.892,-0.006 -2.319,-0.737c-0.427,-0.731 -4.001,-2.738 -7.944,-4.459c-3.942,-1.721 -7.865,-3.129 -8.718,-3.129c-0.893,0 -1.331,-0.574 -1.032,-1.353c0.285,-0.744 2.635,-2.344 5.221,-3.555c2.587,-1.211 6.497,-3.753 8.689,-5.647c2.192,-1.895 4.609,-3.445 5.371,-3.445c0.762,0 4.874,-1.575 9.137,-3.5c4.263,-1.925 8.427,-3.5 9.253,-3.5c0.826,0 2.057,0.669 2.736,1.487M1182.3783,897.53c-2.353,2.015 -3.781,2.633 -4.477,1.937c-0.696,-0.696 -0.679,-1.566 0.053,-2.727c0.606,-0.959 2.563,-1.806 4.478,-1.937c3.402,-0.232 3.402,-0.232 -0.054,2.727M988.8533,896.939c1.09,0.824 2.994,1.512 4.231,1.529c1.319,0.019 2.25,0.653 2.25,1.532c0,0.825 -0.563,1.553 -1.25,1.618c-0.688,0.066 -1.475,0.077 -1.75,0.026c-0.275,-0.051 -2.3,-0.737 -4.5,-1.525c-2.2,-0.788 -4,-2.031 -4,-2.762c0,-0.731 0.684,-1.461 1.519,-1.622c0.836,-0.161 2.411,0.381 3.5,1.204" id="CompoundPath 1" fill="#ffe0b2" fill-rule="evenodd"/></g></g></g></g></g></svg>