<svg xmlns="http://www.w3.org/2000/svg" version="1.1" viewBox="353.03 466.12 893.78 667.89"><path d="M 950.500 466.716 C 949.400 466.982, 947.600 467.999, 946.500 468.975 C 945.400 469.951, 943.507 471.262, 942.292 471.888 C 941.024 472.541, 935.703 472.988, 929.792 472.938 C 924.132 472.890, 917.380 473.332, 914.789 473.921 C 912.197 474.509, 907.472 476.295, 904.289 477.888 C 901.105 479.481, 897.431 481.107, 896.124 481.500 C 894.816 481.893, 889.641 482.504, 884.624 482.858 C 875.718 483.485, 875.506 483.558, 875.768 485.919 C 875.916 487.249, 876.928 488.962, 878.018 489.725 C 879.108 490.489, 879.988 491.425, 879.973 491.807 C 879.958 492.188, 877.807 494.815, 875.192 497.644 C 872.541 500.514, 868.095 507.367, 865.138 513.144 C 862.223 518.840, 858.709 525.750, 857.329 528.500 C 855.949 531.250, 853.882 535.443, 852.735 537.818 C 851.589 540.192, 848.118 544.764, 845.022 547.977 C 840.215 552.967, 838.710 553.921, 834.697 554.523 C 832.114 554.910, 830.010 555.738, 830.023 556.364 C 830.035 556.989, 831.464 558.199, 833.197 559.052 C 834.930 559.906, 836.814 561.343, 837.383 562.246 C 838.101 563.384, 838.078 565.360, 837.310 568.693 C 836.700 571.337, 835.422 575.750, 834.470 578.500 C 833.518 581.250, 830.323 588.450, 827.369 594.500 C 824.416 600.550, 821.231 606.719, 820.293 608.210 C 819.354 609.700, 818.902 611.235, 819.288 611.621 C 819.674 612.007, 821.759 611.740, 823.921 611.026 C 826.083 610.313, 828.624 610.025, 829.568 610.388 C 831.071 610.965, 831.201 612.033, 830.619 619.018 C 830.253 623.403, 829.465 628.230, 828.866 629.745 C 828.268 631.260, 826.738 636.634, 825.466 641.686 C 824.195 646.739, 822.126 652.264, 820.869 653.964 C 819.227 656.184, 816.879 657.583, 812.541 658.927 C 807.897 660.366, 806.527 661.227, 806.615 662.649 C 806.678 663.667, 807.042 665.232, 807.425 666.128 C 807.951 667.360, 807.437 667.885, 805.310 668.289 C 803.765 668.583, 798.949 669.790, 794.609 670.971 C 790.270 672.152, 785.103 674.217, 783.127 675.559 C 781.152 676.902, 779.065 678, 778.490 678 C 777.915 678, 776.674 678.900, 775.732 680 C 774.790 681.100, 773.288 682, 772.394 682 C 771.500 682, 768.667 683.542, 766.100 685.427 C 763.532 687.312, 760.213 689.160, 758.723 689.533 C 757.233 689.907, 756.262 690.615, 756.566 691.107 C 756.870 691.598, 756.416 692, 755.559 692 C 754.702 692, 754 692.450, 754 693 C 754 693.550, 753.388 694, 752.640 694 C 751.891 694, 749.621 695.125, 747.595 696.500 C 745.569 697.875, 743.438 699, 742.860 699 C 742.282 699, 740.614 699.837, 739.154 700.861 C 737.694 701.884, 734.072 703.295, 731.105 703.995 C 728.138 704.696, 724.538 705.881, 723.105 706.628 C 721.672 707.376, 719.469 707.990, 718.210 707.994 C 716.950 707.997, 714.700 708.867, 713.210 709.926 C 711.719 710.985, 707.125 712.594, 703 713.501 C 698.875 714.408, 694.620 715.627, 693.545 716.211 C 692.470 716.795, 688.870 717.935, 685.545 718.744 C 682.220 719.553, 677.938 720.413, 676.029 720.655 C 674.121 720.897, 672.316 721.489, 672.019 721.969 C 671.723 722.449, 670.134 723.155, 668.490 723.538 C 666.845 723.921, 663.250 724.924, 660.500 725.767 C 657.750 726.609, 654.790 727.906, 653.921 728.649 C 653.053 729.392, 651.718 730, 650.955 730 C 650.191 730, 647.527 730.764, 645.033 731.697 C 642.540 732.630, 640.140 733.980, 639.700 734.697 C 639.260 735.414, 638.333 736, 637.638 736 C 636.944 736, 634.604 736.906, 632.438 738.014 C 630.272 739.122, 627.825 740.396, 627 740.846 C 626.175 741.295, 624.001 742.414, 622.169 743.331 C 620.337 744.249, 618.199 745, 617.419 745 C 616.639 745, 616.113 745.539, 616.250 746.199 C 616.389 746.864, 613.708 748.376, 610.226 749.596 C 606.775 750.806, 603.400 752.241, 602.726 752.785 C 602.052 753.330, 599.475 754.073, 597 754.438 C 594.525 754.803, 589.800 755.354, 586.500 755.663 C 583.200 755.972, 576.771 755.675, 572.212 755.003 C 567.654 754.331, 563.299 753.156, 562.534 752.391 C 561.769 751.626, 560.540 751, 559.804 751 C 559.067 751, 556.734 749.824, 554.620 748.388 C 552.505 746.951, 550.038 745.024, 549.138 744.107 C 548.237 743.190, 546.861 741.215, 546.081 739.720 C 545.301 738.224, 544.349 737, 543.967 737 C 543.585 737, 542.493 734.960, 541.540 732.467 C 540.227 729.027, 539.894 725.710, 540.162 718.717 C 540.438 711.481, 541.022 708.504, 542.878 704.864 C 544.177 702.314, 546.199 699.093, 547.370 697.707 C 548.542 696.320, 550.162 694.244, 550.971 693.093 C 551.780 691.942, 552.745 691, 553.115 691 C 553.485 691, 555.234 689.650, 557 688 C 558.766 686.350, 561.064 685, 562.106 685 C 563.148 685, 564 684.568, 564 684.040 C 564 683.512, 565.800 682.541, 568 681.882 C 570.200 681.223, 572 680.363, 572 679.971 C 572 679.578, 574.354 678.945, 577.231 678.564 C 580.108 678.182, 582.749 677.406, 583.099 676.840 C 583.449 676.273, 585.370 675.763, 587.368 675.707 C 589.366 675.650, 591 675.281, 591 674.887 C 591 674.494, 599.212 674.300, 609.250 674.456 C 619.288 674.613, 628.668 674.955, 630.096 675.216 C 631.523 675.477, 633.245 676.033, 633.922 676.452 C 634.600 676.871, 637.932 677.576, 641.327 678.021 C 644.722 678.465, 651.775 679.585, 657 680.510 C 662.225 681.435, 666.725 682.534, 667 682.952 C 667.275 683.369, 669.525 683.982, 672 684.313 C 674.475 684.644, 679.650 685.369, 683.500 685.925 C 687.350 686.480, 692.847 686.949, 695.715 686.967 C 698.583 686.985, 703.083 686.277, 705.715 685.393 C 708.347 684.508, 712.435 682.912, 714.800 681.845 C 717.164 680.778, 719.324 679.139, 719.599 678.202 C 719.874 677.266, 721.021 674.758, 722.149 672.630 C 723.656 669.783, 724.226 666.741, 724.304 661.130 C 724.397 654.445, 724.075 652.976, 721.705 649.270 C 720.217 646.943, 719 644.396, 719 643.608 C 719 642.821, 716.131 639.550, 712.625 636.339 C 708.305 632.382, 704.679 630.017, 701.375 629 C 698.116 627.997, 692.491 627.521, 684.404 627.565 C 673.288 627.624, 671.892 627.847, 667.173 630.315 C 663.002 632.496, 660.700 633, 654.923 633 C 650.027 633, 646.913 632.471, 644.935 631.303 C 643.355 630.369, 641.764 629.903, 641.400 630.267 C 641.036 630.631, 641.492 632.407, 642.414 634.214 C 643.335 636.021, 644.888 638.850, 645.865 640.500 C 646.842 642.150, 648.824 644.076, 650.268 644.779 C 651.712 645.483, 654.440 647.864, 656.329 650.071 C 659.204 653.430, 660.614 654.218, 664.994 654.910 C 667.971 655.380, 672.008 655.338, 674.362 654.812 C 676.638 654.304, 679.557 653.199, 680.849 652.356 C 682.141 651.514, 685.741 649.947, 688.849 648.875 C 691.957 647.804, 696.750 646.904, 699.500 646.877 C 702.250 646.850, 705.850 647.345, 707.500 647.977 C 709.150 648.610, 711.794 650.336, 713.376 651.814 C 714.958 653.291, 717.086 656.300, 718.104 658.500 C 719.123 660.700, 719.966 663.677, 719.978 665.115 C 719.990 666.553, 719.096 668.880, 717.990 670.285 C 716.885 671.690, 713.867 674.021, 711.283 675.466 C 706.672 678.042, 706.292 678.085, 691.042 677.715 C 680.580 677.462, 673.702 676.806, 670 675.709 C 666.975 674.812, 662.700 673.638, 660.500 673.101 C 658.300 672.564, 653.800 671.626, 650.500 671.017 C 647.200 670.407, 640 669.215, 634.500 668.367 C 627.129 667.231, 620.031 666.961, 607.500 667.339 C 598.150 667.621, 586.900 668.534, 582.500 669.366 C 578.100 670.199, 572.700 671.298, 570.500 671.809 C 568.300 672.320, 565.150 673.469, 563.500 674.363 C 561.850 675.257, 559.686 675.990, 558.691 675.994 C 557.696 675.997, 557.160 676.450, 557.500 677 C 557.840 677.550, 557.661 678, 557.103 678 C 556.545 678, 554.381 679.140, 552.294 680.534 C 550.207 681.927, 546.700 684.740, 544.500 686.784 C 542.300 688.828, 539.600 692.288, 538.500 694.473 C 537.400 696.658, 535.753 699.286, 534.840 700.314 C 533.865 701.413, 532.719 705.548, 532.061 710.342 C 531.446 714.829, 530.898 719.625, 530.843 721 C 530.789 722.375, 531.302 728.675, 531.984 735 C 533.113 745.469, 533.483 746.773, 536.112 749.548 C 537.700 751.224, 539 752.956, 539 753.396 C 539 753.837, 539.726 755.728, 540.614 757.599 C 541.502 759.469, 542.686 761, 543.247 761 C 543.807 761, 545.106 761.969, 546.133 763.153 C 547.160 764.337, 548 765.640, 548 766.048 C 548 766.456, 550.259 767.972, 553.020 769.415 C 555.781 770.859, 558.860 772.860, 559.862 773.862 C 561.126 775.126, 563.950 775.894, 569.088 776.372 C 573.160 776.750, 578.519 777.970, 580.996 779.083 C 583.473 780.195, 586.625 781.664, 588 782.347 C 590.013 783.346, 590.513 784.357, 590.565 787.534 C 590.601 789.705, 590.270 791.935, 589.830 792.490 C 589.390 793.046, 587.880 794.937, 586.474 796.694 C 585.067 798.450, 583.216 801.946, 582.358 804.462 C 581.501 806.978, 579.981 809.475, 578.980 810.011 C 577.979 810.546, 576.611 812.676, 575.939 814.742 C 575.268 816.809, 573.207 820.189, 571.359 822.253 C 569.506 824.323, 568 827.091, 568 828.426 C 568 829.757, 566.942 832.119, 565.649 833.673 C 564.355 835.228, 562.780 837.483, 562.149 838.684 C 561.517 839.886, 560.996 841.911, 560.990 843.184 C 560.985 844.458, 559.458 847.415, 557.597 849.755 C 555.737 852.096, 553.910 855.221, 553.539 856.700 C 553.168 858.178, 550.982 861.975, 548.682 865.138 C 546.382 868.300, 543.712 870.912, 542.750 870.943 C 541.788 870.975, 541 871.473, 541 872.051 C 541 872.629, 539.537 873.715, 537.750 874.464 C 535.962 875.213, 533.409 876.990, 532.076 878.413 C 530.742 879.836, 529.171 881, 528.585 881 C 527.998 881, 524.364 882.552, 520.509 884.449 C 516.654 886.346, 511.250 888.179, 508.500 888.523 C 505.750 888.866, 502.202 889.356, 500.616 889.611 C 499.029 889.867, 496.554 891.334, 495.116 892.873 C 493.677 894.411, 491.968 895.857, 491.318 896.085 C 490.545 896.357, 489.784 901.684, 489.115 911.500 C 488.553 919.750, 487.649 928.750, 487.106 931.500 C 486.563 934.250, 486.101 944.150, 486.080 953.500 C 486.058 962.850, 486.510 973.425, 487.084 977 C 487.658 980.575, 488.156 986.181, 488.190 989.458 C 488.223 992.735, 487.786 995.571, 487.217 995.761 C 486.649 995.950, 485.917 995.675, 485.591 995.148 C 485.266 994.621, 483.299 994.418, 481.221 994.697 C 479.143 994.976, 473.406 994.451, 468.471 993.530 C 463.537 992.609, 457.645 991.039, 455.378 990.041 C 453.110 989.042, 449.462 986.605, 447.269 984.624 C 444.956 982.535, 442.120 978.431, 440.511 974.845 C 438.068 969.401, 437.806 967.857, 438.308 961.865 C 438.717 956.991, 439.664 953.709, 441.652 950.282 C 443.178 947.652, 444.780 945.350, 445.213 945.167 C 445.646 944.983, 446 944.126, 446 943.261 C 446 942.396, 447.055 940.296, 448.345 938.594 C 449.635 936.892, 451.660 932.896, 452.845 929.712 C 454.030 926.529, 455 922.151, 455 919.983 C 455 917.814, 454.276 914.231, 453.391 912.020 C 452.507 909.809, 451.430 908, 451 908 C 450.569 908, 449.953 906.948, 449.630 905.662 C 449.307 904.377, 448.065 902.082, 446.870 900.562 C 445.675 899.042, 442.781 896.978, 440.439 895.974 C 438.039 894.945, 435.895 893.243, 435.523 892.072 C 435.073 890.653, 433.448 889.638, 430.400 888.870 C 427.945 888.252, 425.381 887.016, 424.703 886.123 C 424.024 885.230, 422.576 883.936, 421.485 883.248 C 420.393 882.559, 418.502 881.563, 417.281 881.034 C 416.061 880.506, 414.486 879.124, 413.781 877.964 C 413.077 876.805, 411.038 875.236, 409.250 874.479 C 407.462 873.722, 406 872.635, 406 872.064 C 406 871.492, 404.200 869.889, 402 868.500 C 399.788 867.104, 398 865.183, 398 864.203 C 398 863.229, 396.653 861.635, 395.006 860.662 C 393.359 859.690, 391.733 857.785, 391.393 856.431 C 391.053 855.077, 389.813 853.188, 388.638 852.234 C 387.462 851.280, 385.617 848.700, 384.538 846.500 C 382.576 842.500, 382.576 842.500, 382.038 847 C 381.742 849.475, 381.961 860.353, 382.525 871.172 C 383.304 886.140, 383.912 891.282, 385.068 892.672 C 385.903 893.678, 387.175 895.681, 387.895 897.124 C 388.689 898.717, 389.261 903.911, 389.351 910.346 C 389.500 920.945, 389.500 920.945, 384.543 925.706 C 381.816 928.325, 377.541 931.448, 375.043 932.647 C 372.544 933.846, 366.994 938.208, 362.709 942.341 C 355.324 949.464, 354.869 950.158, 353.965 955.678 C 353.441 958.880, 353.018 964.875, 353.026 969 C 353.034 973.125, 353.460 979.407, 353.974 982.961 C 354.599 987.285, 355.538 989.931, 356.815 990.961 C 357.864 991.807, 359.557 993.962, 360.577 995.750 C 361.597 997.538, 362.999 999, 363.693 999 C 364.386 999, 365.706 1000.148, 366.625 1001.551 C 367.545 1002.954, 369.693 1004.821, 371.398 1005.700 C 373.104 1006.579, 375.032 1008.050, 375.681 1008.970 C 376.331 1009.890, 378.641 1011.175, 380.814 1011.826 C 383.582 1012.655, 386.169 1014.652, 389.449 1018.492 C 392.025 1021.507, 394.527 1025.350, 395.010 1027.033 C 395.492 1028.716, 396.183 1034.235, 396.545 1039.297 C 396.907 1044.358, 397.607 1048.928, 398.101 1049.450 C 398.667 1050.048, 399.402 1049.998, 400.084 1049.316 C 400.681 1048.719, 402.593 1045.391, 404.334 1041.920 C 407.273 1036.062, 408.037 1035.321, 415 1031.580 C 422.500 1027.551, 422.500 1027.551, 475.500 1026.777 C 510.257 1026.270, 534.122 1026.366, 544.833 1027.057 C 553.817 1027.637, 588.109 1028.284, 621.039 1028.496 C 662.986 1028.767, 681.544 1029.221, 683.025 1030.013 C 684.187 1030.635, 687.695 1033.446, 690.819 1036.260 C 693.944 1039.074, 697.802 1043.126, 699.393 1045.265 C 701.386 1047.943, 702.524 1048.771, 703.048 1047.922 C 703.627 1046.986, 704.919 1047.212, 708.426 1048.860 C 710.965 1050.054, 715.203 1051.494, 717.844 1052.060 C 721.011 1052.739, 724.110 1052.761, 726.946 1052.123 C 729.311 1051.592, 731.866 1051.395, 732.623 1051.686 C 733.380 1051.976, 734 1052.861, 734 1053.651 C 734 1054.441, 734.563 1054.988, 735.250 1054.867 C 735.938 1054.746, 741.450 1054.960, 747.500 1055.343 C 753.550 1055.725, 760.975 1056.534, 764 1057.140 C 767.025 1057.745, 769.820 1058.747, 770.211 1059.366 C 770.690 1060.125, 771.371 1059.875, 772.308 1058.594 C 773.182 1057.398, 773.938 1057.091, 774.354 1057.763 C 774.716 1058.350, 775.453 1065.280, 775.992 1073.165 C 776.530 1081.049, 776.984 1097.175, 777 1109 C 777.017 1120.872, 777.458 1131.172, 777.985 1132 C 778.771 1133.236, 779.293 1133.280, 780.956 1132.250 C 782.065 1131.563, 783.204 1131, 783.486 1131 C 783.769 1131, 784 1131.675, 784 1132.500 C 784 1133.514, 785.015 1134, 787.135 1134 C 789.255 1134, 791.118 1133.109, 792.885 1131.250 C 795.500 1128.500, 795.500 1128.500, 795.827 1131.359 C 796.154 1134.217, 796.154 1134.217, 803.059 1133.827 C 806.856 1133.612, 810.459 1132.941, 811.064 1132.336 C 811.801 1131.599, 812.261 1121.533, 812.457 1101.868 C 812.736 1073.802, 812.855 1072.212, 815.130 1066 C 817.512 1059.500, 817.512 1059.500, 823.963 1059.200 C 827.512 1059.036, 830.884 1058.532, 831.457 1058.082 C 832.031 1057.631, 836.199 1056.675, 840.720 1055.956 C 846.740 1054.999, 850.086 1054.928, 853.220 1055.692 C 855.574 1056.265, 858.400 1057.055, 859.500 1057.447 C 860.899 1057.946, 860.599 1057.387, 858.500 1055.585 C 856.850 1054.169, 855.725 1052.989, 856 1052.963 C 856.275 1052.937, 860.360 1052.778, 865.078 1052.610 C 871.628 1052.377, 874.938 1051.717, 879.082 1049.820 C 882.066 1048.454, 885.006 1047.502, 885.615 1047.705 C 886.223 1047.908, 887.519 1046.820, 888.495 1045.287 C 889.470 1043.754, 892.570 1040.333, 895.384 1037.685 C 898.198 1035.037, 901.850 1032.001, 903.500 1030.939 C 906.329 1029.118, 908.653 1029.007, 944.178 1029.004 C 964.900 1029.002, 985.150 1029.433, 989.178 1029.963 C 993.205 1030.493, 1023.204 1031.170, 1055.842 1031.467 C 1088.480 1031.765, 1116.380 1032.307, 1117.842 1032.673 C 1119.304 1033.039, 1121.850 1034.161, 1123.500 1035.165 C 1125.150 1036.170, 1126.761 1036.994, 1127.079 1036.996 C 1127.398 1036.998, 1127.623 1036.010, 1127.579 1034.800 C 1127.531 1033.449, 1128.400 1032.144, 1129.834 1031.416 C 1131.118 1030.764, 1133.049 1030.462, 1134.124 1030.743 C 1135.200 1031.024, 1136.749 1032.547, 1137.566 1034.127 C 1138.383 1035.707, 1139.433 1037, 1139.900 1037 C 1140.366 1037, 1142.725 1035.895, 1145.142 1034.544 C 1148.822 1032.487, 1151.022 1032.061, 1158.691 1031.922 C 1166.687 1031.776, 1168.239 1032.034, 1170.945 1033.961 C 1172.649 1035.174, 1174.708 1037.759, 1175.521 1039.705 C 1176.335 1041.652, 1177 1046.114, 1177 1049.622 C 1177 1055.743, 1177.100 1056, 1179.478 1056 C 1180.841 1056, 1185.229 1054.475, 1189.228 1052.611 C 1193.228 1050.747, 1201.450 1046.978, 1207.500 1044.234 C 1213.550 1041.491, 1223.400 1037.304, 1229.388 1034.931 C 1235.377 1032.557, 1241.673 1029.673, 1243.381 1028.522 C 1245.089 1027.371, 1246.626 1025.702, 1246.798 1024.812 C 1247.015 1023.681, 1243.852 1021.248, 1236.305 1016.742 C 1230.362 1013.193, 1224.150 1009.630, 1222.500 1008.824 C 1220.850 1008.018, 1216.125 1005.531, 1212 1003.296 C 1207.875 1001.062, 1199.422 996.681, 1193.216 993.560 C 1185.727 989.795, 1181.269 988.097, 1179.963 988.512 C 1178.186 989.076, 1178.011 989.981, 1178.163 997.818 C 1178.255 1002.593, 1178.036 1007.401, 1177.676 1008.503 C 1177.283 1009.706, 1175.426 1011.004, 1173.027 1011.753 C 1170.829 1012.439, 1165.762 1012.991, 1161.766 1012.979 C 1156.507 1012.964, 1152.567 1012.252, 1147.500 1010.402 C 1143.650 1008.996, 1139.728 1007.607, 1138.784 1007.315 C 1137.274 1006.848, 1137.138 1007.372, 1137.650 1011.691 C 1138.231 1016.597, 1138.231 1016.597, 1134.695 1016.697 C 1132.188 1016.768, 1130.515 1016.113, 1128.950 1014.447 C 1127.508 1012.912, 1126.935 1011.358, 1127.298 1009.969 C 1127.750 1008.239, 1127.541 1007.996, 1126.177 1008.666 C 1125.255 1009.119, 1090.525 1009.636, 1049 1009.816 C 1007.475 1009.995, 970.174 1009.840, 966.109 1009.472 C 959.339 1008.859, 958.410 1008.496, 955.062 1005.151 C 953.052 1003.143, 950.338 999.138, 949.032 996.250 C 947.727 993.362, 946.285 991, 945.829 991 C 945.373 991, 945 991.243, 945 991.540 C 945 991.837, 945.900 993.844, 947 996 C 948.100 998.156, 949 1000.868, 949 1002.026 C 949 1003.184, 949.475 1005.019, 950.055 1006.104 C 950.636 1007.188, 950.831 1008.959, 950.488 1010.038 C 950.057 1011.396, 948.968 1012, 946.952 1012 C 944.734 1012, 943.928 1011.463, 943.577 1009.750 C 943.323 1008.513, 942.835 1005.700, 942.493 1003.500 C 942.151 1001.300, 940.963 997.595, 939.854 995.266 C 938.189 991.772, 937.108 990.822, 933.668 989.835 C 931.376 989.178, 929.288 988.471, 929.029 988.265 C 928.770 988.060, 929.220 987.473, 930.029 986.961 C 930.838 986.449, 933.006 986.024, 934.846 986.015 C 936.686 986.007, 939.498 986.931, 941.096 988.068 C 942.693 989.206, 943.990 989.768, 943.978 989.318 C 943.966 988.868, 943.178 987.536, 942.228 986.358 C 941.277 985.180, 939.060 983.492, 937.300 982.608 C 935.159 981.532, 931.457 981, 926.116 981 C 918.132 981, 918.132 981, 912.566 975.522 C 909.505 972.509, 907 969.634, 907 969.132 C 907 968.631, 905.444 966.484, 903.541 964.360 C 901.594 962.186, 899.590 958.534, 898.954 956 C 898.334 953.525, 897.329 948.913, 896.723 945.750 C 895.915 941.542, 895.918 938.458, 896.735 934.250 C 897.349 931.087, 898.365 926.025, 898.994 923 C 899.623 919.975, 901.215 915.925, 902.532 914 C 903.849 912.074, 905.561 907.469, 906.338 903.765 C 907.114 900.062, 908.534 895.834, 909.493 894.371 C 910.452 892.907, 911.856 888.738, 912.614 885.105 C 913.371 881.472, 915.604 875.125, 917.576 871 C 919.547 866.875, 922.439 860.800, 924.001 857.500 C 925.564 854.200, 927.542 849.606, 928.397 847.290 C 929.252 844.975, 931.504 841.047, 933.402 838.560 C 935.300 836.074, 937.141 833.131, 937.494 832.020 C 937.846 830.909, 938.982 830, 940.017 830 C 941.053 830, 943.947 828.618, 946.450 826.929 C 948.952 825.240, 951 823.461, 951 822.976 C 951 822.491, 952.604 821.333, 954.565 820.402 C 956.525 819.472, 959.675 816.686, 961.565 814.212 C 963.454 811.737, 965 809.304, 965 808.805 C 965 808.306, 966.561 807.246, 968.468 806.449 C 970.375 805.652, 974.404 805, 977.421 805 C 982.906 805, 982.906 805, 985.007 800.250 C 986.162 797.638, 988.126 794.375, 989.371 793 C 990.617 791.625, 992.423 789.233, 993.384 787.684 C 994.346 786.135, 995.890 783.933, 996.816 782.791 C 997.742 781.649, 999.816 779.167, 1001.425 777.276 C 1003.034 775.384, 1005.427 771.512, 1006.744 768.672 C 1008.060 765.831, 1009.688 762.830, 1010.361 762.003 C 1011.035 761.176, 1012.093 758.925, 1012.713 757 C 1013.332 755.075, 1014.151 751.525, 1014.531 749.110 C 1014.912 746.696, 1016.298 742.580, 1017.612 739.965 C 1018.925 737.349, 1020 734.290, 1020 733.167 C 1020 732.043, 1019.368 728.284, 1018.596 724.812 C 1017.824 721.340, 1016.897 712.178, 1016.536 704.450 C 1016.175 696.723, 1015.482 688.636, 1014.995 686.478 C 1014.509 684.321, 1014.331 682.336, 1014.601 682.066 C 1014.870 681.796, 1015.964 682.121, 1017.032 682.788 C 1018.099 683.455, 1019.204 684, 1019.486 684 C 1019.769 684, 1020 681.278, 1020 677.950 C 1020 674.623, 1019.355 670.653, 1018.566 669.128 C 1017.777 667.602, 1016.427 665.770, 1015.566 665.055 C 1014.705 664.340, 1014 663.006, 1014 662.090 C 1014 661.174, 1012.668 658.866, 1011.041 656.962 C 1009.413 655.058, 1008.063 653.019, 1008.041 652.431 C 1008.018 651.843, 1004.559 647.568, 1000.353 642.931 C 996.147 638.294, 991.873 633.150, 990.856 631.500 C 989.839 629.850, 989.006 626.868, 989.004 624.872 C 989.002 622.784, 989.670 620.689, 990.578 619.935 C 991.890 618.846, 993.979 618.994, 1002.954 620.813 C 1009.980 622.236, 1017.375 622.996, 1024.126 622.990 C 1032.234 622.982, 1035.853 623.455, 1040.697 625.156 C 1045.820 626.955, 1047.163 627.109, 1048.447 626.044 C 1049.492 625.177, 1050 623.029, 1050 619.484 C 1050 616.584, 1050.477 609.552, 1051.059 603.856 C 1051.958 595.068, 1052.488 593.113, 1054.559 590.945 C 1055.902 589.540, 1057 588.030, 1057 587.590 C 1057 587.149, 1058.113 585.466, 1059.474 583.849 C 1060.834 582.232, 1062.446 579.058, 1063.055 576.795 C 1063.664 574.533, 1063.884 571.197, 1063.544 569.382 C 1063.091 566.966, 1061.795 565.323, 1058.712 563.253 C 1056.171 561.546, 1054.500 559.650, 1054.500 558.475 C 1054.500 557.174, 1055.942 555.808, 1058.834 554.369 C 1063.168 552.212, 1063.168 552.212, 1058.698 549.136 C 1056.239 547.445, 1051.912 545.148, 1049.081 544.032 C 1046.251 542.916, 1042.937 541.378, 1041.718 540.613 C 1040.498 539.849, 1037.700 538.652, 1035.500 537.955 C 1033.300 537.258, 1029.892 535.626, 1027.927 534.328 C 1025.962 533.031, 1022.137 529.422, 1019.427 526.310 C 1016.717 523.197, 1013.768 519.566, 1012.874 518.240 C 1011.980 516.914, 1009.808 514.953, 1008.048 513.883 C 1006.289 512.813, 1001.961 511.332, 998.431 510.592 C 994.778 509.827, 990.562 508.141, 988.647 506.680 C 986.796 505.268, 984.439 502.400, 983.409 500.306 C 982.301 498.055, 981.529 494.323, 981.518 491.169 C 981.504 487.061, 981.938 485.518, 983.412 484.441 C 984.516 483.634, 986.417 483.283, 987.912 483.610 C 989.335 483.922, 992.654 484.854, 995.287 485.681 C 997.920 486.509, 1000.767 486.919, 1001.615 486.594 C 1002.917 486.094, 1002.796 485.549, 1000.827 483.057 C 999.547 481.437, 998.004 480.086, 997.398 480.055 C 996.792 480.025, 994.884 478.650, 993.157 477 C 990.107 474.085, 989.741 474, 980.232 474 C 972.717 474, 969.893 474.387, 968.066 475.666 C 965.798 477.255, 965.602 477.227, 963.844 475.055 C 962.830 473.803, 962 471.724, 962 470.436 C 962 468.581, 961.220 467.877, 958.250 467.053 C 956.188 466.480, 954.050 466.061, 953.500 466.122 C 952.950 466.182, 951.600 466.450, 950.500 466.716 M 936.238 510.214 C 936.460 510.881, 939.760 513.351, 943.571 515.703 C 947.382 518.054, 953.650 520.922, 957.500 522.076 C 961.350 523.230, 965.513 524.821, 966.750 525.610 C 967.987 526.400, 969 527.427, 969 527.892 C 969 528.358, 967.410 528.996, 965.468 529.312 C 963.521 529.627, 959.817 529.242, 957.218 528.453 C 954.623 527.666, 951.938 527.017, 951.250 527.011 C 950.563 527.005, 950 527.386, 950 527.858 C 950 528.330, 952.292 529.905, 955.092 531.358 C 958.942 533.356, 961.650 534, 966.191 534 C 969.659 534, 973.642 533.315, 975.615 532.378 C 977.495 531.487, 979.297 530.328, 979.621 529.804 C 979.945 529.281, 979.178 527.754, 977.918 526.413 C 976.452 524.853, 975.973 523.627, 976.587 523.013 C 977.116 522.484, 979.312 521.441, 981.468 520.695 C 983.624 519.948, 985.554 518.837, 985.758 518.225 C 985.962 517.613, 984.188 516.635, 981.815 516.053 C 979.442 515.471, 976.226 514.321, 974.669 513.497 C 973.112 512.674, 971.424 512, 970.919 512 C 970.414 512, 970 512.527, 970 513.171 C 970 513.815, 970.788 515.232, 971.750 516.320 C 973.478 518.272, 973.416 518.289, 966.799 517.690 C 963.114 517.357, 957.489 516.331, 954.299 515.410 C 951.110 514.490, 946.278 512.671, 943.563 511.368 C 940.847 510.066, 937.997 509, 937.230 509 C 936.462 509, 936.015 509.546, 936.238 510.214 M 914.418 514.969 C 913.274 515.432, 911.089 517.294, 909.563 519.108 C 907.093 522.043, 906.834 523.024, 907.198 528.058 C 907.504 532.294, 908.434 535.002, 910.908 538.856 C 912.975 542.078, 914.917 544, 916.104 544 C 917.297 544, 918 543.299, 918 542.109 C 918 541.069, 917.110 538.257, 916.022 535.859 C 914.934 533.462, 914.034 530.233, 914.022 528.684 C 914.010 527.136, 914.466 524.998, 915.035 523.934 C 915.655 522.777, 917.124 522, 918.693 522 C 920.136 522, 925.183 523.750, 929.908 525.889 C 934.634 528.028, 939.710 530.055, 941.189 530.393 C 942.687 530.735, 944.168 530.537, 944.533 529.946 C 944.894 529.363, 943.664 527.449, 941.799 525.693 C 939.935 523.937, 937.080 521.473, 935.455 520.217 C 933.830 518.962, 929.640 517.049, 926.145 515.967 C 922.649 514.885, 919.049 514.029, 918.145 514.063 C 917.240 514.098, 915.563 514.506, 914.418 514.969 M 1009.250 530.721 C 1008.563 530.966, 1008 531.961, 1008 532.932 C 1008 534.062, 1006.562 535.261, 1003.999 536.268 C 1001.799 537.132, 999.713 538.586, 999.363 539.497 C 999.013 540.409, 999.380 541.809, 1000.179 542.608 C 1000.978 543.407, 1005.343 544.947, 1009.879 546.030 C 1014.415 547.114, 1018.538 548, 1019.040 548 C 1019.543 548, 1020.702 546.858, 1021.616 545.463 C 1023.186 543.067, 1023.170 542.802, 1021.324 540.713 C 1020.249 539.496, 1018.607 537.272, 1017.675 535.771 C 1016.743 534.270, 1014.748 532.419, 1013.241 531.658 C 1011.733 530.897, 1009.938 530.475, 1009.250 530.721 M 965 542.878 C 965 543.360, 965.675 544.315, 966.500 545 C 967.325 545.685, 968 546.804, 968 547.488 C 968 548.308, 965.703 548.897, 961.250 549.218 C 956.668 549.548, 952.814 550.560, 949.250 552.369 C 946.362 553.835, 944 555.511, 944 556.094 C 944 556.820, 947.856 556.934, 956.276 556.454 C 967.141 555.835, 968.714 555.950, 969.961 557.454 C 971.176 558.917, 971.172 559.278, 969.936 560.061 C 969.146 560.561, 966.378 560.976, 963.784 560.985 C 961.190 560.993, 957.469 561.762, 955.515 562.694 C 953.561 563.626, 952.129 564.863, 952.333 565.444 C 952.536 566.025, 953.782 566.420, 955.101 566.323 C 956.421 566.226, 960.275 565.830, 963.666 565.443 C 967.057 565.057, 970.995 565.033, 972.416 565.390 C 973.837 565.746, 975 566.447, 975 566.947 C 975 567.447, 972.413 568.818, 969.250 569.994 C 966.087 571.170, 962.487 572.787, 961.250 573.589 C 960.013 574.390, 959 575.486, 959 576.023 C 959 576.560, 959.686 577, 960.525 577 C 961.364 577, 964.611 576.100, 967.740 575 C 970.870 573.900, 975.944 573, 979.015 573 C 982.087 573, 985.119 573.519, 985.753 574.153 C 986.537 574.937, 986.595 575.888, 985.935 577.122 C 985.400 578.120, 982.943 580.121, 980.475 581.568 C 978.006 583.014, 974.486 585.951, 972.652 588.094 C 970.546 590.554, 968.557 594.596, 967.254 599.063 C 965.480 605.142, 965.397 606.215, 966.662 606.701 C 967.472 607.011, 968.494 606.868, 968.933 606.383 C 969.372 605.897, 971.162 602.800, 972.911 599.500 C 974.660 596.200, 977.220 592.487, 978.601 591.250 C 979.982 590.013, 981.986 589, 983.056 589 C 984.125 589, 985 589.262, 985 589.582 C 985 589.902, 983.484 592.039, 981.632 594.332 C 979.780 596.624, 977.777 599.441, 977.182 600.591 C 976.587 601.741, 975.409 604.666, 974.564 607.091 C 973.720 609.516, 973.023 612.288, 973.015 613.250 C 973.006 614.334, 973.756 615, 974.986 615 C 976.417 615, 977.856 613.254, 980.140 608.750 C 981.883 605.313, 983.494 603.038, 983.719 603.695 C 983.945 604.352, 983.609 605.862, 982.972 607.052 C 982.166 608.558, 982.133 609.533, 982.861 610.261 C 983.590 610.990, 984.990 610.482, 987.472 608.589 C 989.463 607.071, 992.379 603.210, 994.078 599.845 C 996.317 595.409, 996.952 593.056, 996.483 590.922 C 996.133 589.328, 994.733 587.149, 993.373 586.079 C 992.013 585.009, 990.386 583.962, 989.757 583.752 C 989.056 583.519, 989.655 582.007, 991.307 579.841 C 992.788 577.900, 994 575.713, 994 574.981 C 994 574.249, 989.888 569.723, 984.862 564.921 C 976.009 556.463, 975.709 556.031, 975.226 550.998 C 974.794 546.508, 974.305 545.547, 971.613 543.906 C 969.901 542.862, 967.712 542.006, 966.750 542.004 C 965.788 542.002, 965 542.395, 965 542.878 M 1037 594.133 C 1033.425 595.231, 1028.475 596.850, 1026 597.732 C 1023.525 598.614, 1020.006 600.821, 1018.181 602.637 C 1015.709 605.096, 1014.943 606.649, 1015.181 608.719 C 1015.449 611.058, 1016.027 611.551, 1018.814 611.818 C 1021.520 612.078, 1022.922 611.405, 1026.450 608.153 C 1028.827 605.962, 1032.150 603.456, 1033.836 602.585 C 1035.522 601.713, 1037.486 600.989, 1038.200 600.975 C 1038.915 600.962, 1041.654 599.370, 1044.287 597.439 C 1046.919 595.508, 1048.805 593.494, 1048.478 592.964 C 1048.150 592.434, 1046.896 592.031, 1045.691 592.069 C 1044.486 592.106, 1040.575 593.035, 1037 594.133 M 864.871 659.986 C 862.875 661.052, 860.082 663.302, 858.664 664.987 C 857.246 666.672, 855.310 670.515, 854.360 673.526 C 853.411 676.537, 852.302 679, 851.895 679 C 851.488 679, 850.645 677.453, 850.021 675.563 C 849.331 673.473, 849.150 669.800, 849.558 666.193 C 850.033 661.990, 849.875 660.041, 849.015 659.509 C 848.323 659.082, 846.659 659.677, 845.150 660.891 C 843.693 662.063, 840.132 664.239, 837.238 665.725 C 834.344 667.212, 832.140 668.894, 832.339 669.464 C 832.539 670.034, 833.557 670.462, 834.601 670.416 C 835.646 670.371, 837.886 670.014, 839.579 669.625 C 842.495 668.954, 842.720 669.123, 843.827 672.817 C 844.470 674.962, 846.973 678.841, 849.389 681.436 C 852.877 685.181, 854.341 686.086, 856.487 685.827 C 858.941 685.530, 859.217 685.071, 859.477 680.854 C 859.667 677.776, 860.857 674.380, 863.004 670.789 C 864.787 667.809, 867.780 664.319, 869.656 663.034 C 871.531 661.749, 872.903 660.203, 872.705 659.599 C 872.506 658.994, 871.479 658.398, 870.422 658.274 C 869.365 658.150, 866.867 658.920, 864.871 659.986 M 886.375 670.676 C 886.034 671.679, 884.418 675.486, 882.783 679.136 C 881.147 682.785, 879.970 686.605, 880.166 687.624 C 880.362 688.643, 881.193 689.595, 882.011 689.739 C 882.830 689.884, 884.493 688.572, 885.708 686.825 C 887.915 683.647, 887.915 683.647, 888.958 686.389 C 889.531 687.897, 889.999 692.138, 889.999 695.815 C 889.998 699.492, 889.323 706.325, 888.500 711 C 887.677 715.675, 887.012 721.525, 887.022 724 C 887.033 726.475, 888.066 732.413, 889.317 737.196 C 890.972 743.525, 892.327 746.574, 894.296 748.398 C 895.783 749.777, 897 751.376, 897 751.952 C 897 752.529, 897.942 753, 899.094 753 C 901.028 753, 901.136 752.624, 900.507 748.053 C 900.040 744.653, 900.342 741.293, 901.474 737.303 C 902.380 734.112, 904.755 729.091, 906.753 726.147 C 910.385 720.795, 910.385 720.795, 911.617 726.647 C 912.295 729.866, 913.491 734.300, 914.275 736.500 C 915.258 739.258, 916.290 740.500, 917.597 740.500 C 918.998 740.500, 920.016 739.021, 921.504 734.825 C 922.611 731.704, 923.851 728.816, 924.258 728.408 C 924.666 728, 925 726.153, 925 724.302 C 925 722.093, 924.431 720.719, 923.344 720.302 C 922.285 719.895, 921.024 720.487, 919.844 721.944 C 918.481 723.628, 918 723.815, 918 722.662 C 918 721.805, 919.087 717.593, 920.416 713.302 C 921.745 709.011, 923.129 703.199, 923.492 700.386 C 924.025 696.247, 923.851 695.157, 922.579 694.669 C 921.452 694.236, 920.402 695.260, 918.871 698.283 C 917.695 700.602, 915.346 704.300, 913.649 706.500 C 911.953 708.700, 908.013 713.425, 904.893 717 C 901.774 720.575, 898.231 725.075, 897.020 727 C 894.818 730.500, 894.818 730.500, 895.658 718 C 896.120 711.125, 896.420 701.675, 896.325 697 C 896.199 690.764, 895.365 685.969, 893.197 679 C 891.218 672.638, 889.705 669.393, 888.618 669.176 C 887.725 668.998, 886.715 669.673, 886.375 670.676 M 932.459 739.750 C 932.044 740.712, 931.492 747.261, 931.232 754.302 C 930.948 762.017, 931.228 769.567, 931.936 773.302 C 932.583 776.711, 934.270 782.650, 935.685 786.500 C 937.101 790.350, 938.872 794.156, 939.622 794.957 C 940.543 795.941, 941.315 796.085, 941.998 795.402 C 942.682 794.718, 942.543 792.945, 941.570 789.944 C 940.777 787.500, 939.741 780.550, 939.268 774.500 C 938.795 768.450, 938.492 760.754, 938.594 757.397 C 938.697 754.040, 938.340 748.865, 937.802 745.897 C 937.263 742.929, 936.358 739.938, 935.789 739.250 C 935.220 738.563, 934.408 738, 933.985 738 C 933.561 738, 932.874 738.788, 932.459 739.750 M 856.517 806.682 C 854.583 809.215, 853 812.114, 853 813.124 C 853 814.135, 854.550 817.383, 856.443 820.344 C 858.337 823.305, 860.925 828.601, 862.193 832.113 C 864.285 837.904, 864.507 840.273, 864.570 857.500 C 864.631 874.022, 864.847 876.539, 866.227 876.805 C 867.440 877.039, 868.182 875.494, 869.374 870.255 C 870.231 866.484, 871.371 859.544, 871.907 854.832 C 872.647 848.320, 872.554 844.707, 871.520 839.768 C 870.773 836.194, 868.500 829.946, 866.469 825.885 C 864.439 821.823, 862.123 817.756, 861.321 816.847 C 860.045 815.398, 860.059 814.542, 861.433 809.915 C 862.295 807.012, 863 804.317, 863 803.925 C 863 803.534, 862.333 802.958, 861.517 802.645 C 860.551 802.274, 858.807 803.682, 856.517 806.682 M 712.113 836.108 C 701.908 839.844, 694.552 841.992, 692.613 841.803 C 690.198 841.568, 689.179 840.772, 688.070 838.250 C 687.283 836.462, 686.013 835, 685.248 835 C 684.483 835, 683.327 835.571, 682.679 836.268 C 682.030 836.966, 680.737 838.906, 679.805 840.580 C 678.873 842.253, 677.377 846.846, 676.480 850.786 C 675.584 854.726, 675.136 858.411, 675.485 858.975 C 675.833 859.539, 676.879 859.998, 677.809 859.996 C 678.739 859.994, 680.907 859.135, 682.627 858.086 C 684.346 857.038, 688.846 854.481, 692.627 852.405 C 696.407 850.328, 704.225 846.276, 710 843.399 C 715.775 840.523, 723.087 837.031, 726.250 835.640 C 729.700 834.122, 732 832.488, 732 831.555 C 732 830.700, 731.212 830.025, 730.250 830.055 C 729.288 830.086, 721.126 832.810, 712.113 836.108 M 751.462 835.681 C 750.658 836.485, 750 837.916, 750 838.861 C 750 839.806, 749.312 843.222, 748.471 846.451 C 747.630 849.680, 746.307 852.812, 745.532 853.411 C 744.758 854.010, 743.595 857.425, 742.949 861 C 742.303 864.575, 741.113 869.413, 740.305 871.750 C 739.496 874.087, 738.433 876, 737.943 876 C 737.453 876, 736.346 877.363, 735.485 879.029 C 734.623 880.696, 734.165 882.458, 734.466 882.945 C 734.768 883.433, 734.541 885.076, 733.963 886.596 C 733.385 888.116, 731.778 890.495, 730.391 891.882 C 729.004 893.269, 727.625 895.625, 727.326 897.118 C 727.028 898.612, 725.482 901.080, 723.892 902.604 C 722.233 904.193, 721 906.426, 721 907.841 C 721 909.198, 719.426 913.122, 717.503 916.561 C 715.580 920, 713.281 925.645, 712.394 929.105 C 711.380 933.066, 711.012 937.071, 711.402 939.915 C 711.742 942.400, 713.142 946.127, 714.512 948.198 C 715.882 950.268, 718.915 953.712, 721.251 955.852 C 723.588 957.992, 729.363 962.916, 734.084 966.794 C 738.805 970.673, 745.599 975.230, 749.181 976.923 C 752.763 978.615, 757 979.980, 758.597 979.955 C 760.194 979.930, 762.832 979.341, 764.461 978.647 C 767.063 977.537, 768.006 977.666, 772.250 979.713 C 774.906 980.995, 777.271 982.596, 777.505 983.271 C 777.739 983.947, 778.097 986.343, 778.300 988.595 C 778.503 990.847, 779.418 993.759, 780.334 995.067 C 781.251 996.375, 782.068 997.007, 782.150 996.473 C 782.233 995.938, 782.570 997.525, 782.900 1000 C 783.500 1004.500, 783.500 1004.500, 823.787 1004.568 C 851.978 1004.615, 863.945 1004.315, 863.644 1003.568 C 863.408 1002.981, 860.947 997.100, 858.175 990.500 C 855.403 983.900, 852.850 976.763, 852.501 974.639 C 852.066 971.989, 851.261 970.620, 849.934 970.272 C 848.870 969.994, 847.970 969.482, 847.933 969.133 C 847.895 968.785, 847.668 966.925, 847.427 965 C 847.187 963.075, 845.931 959.445, 844.638 956.933 C 843.172 954.086, 842.350 950.884, 842.456 948.433 C 842.550 946.270, 843.008 944.725, 843.474 945 C 843.940 945.275, 844.890 943.925, 845.585 942 C 846.279 940.075, 846.882 937.005, 846.924 935.179 C 846.966 933.352, 847.563 931.230, 848.250 930.463 C 848.938 929.697, 850.154 928.300, 850.953 927.360 C 852.061 926.056, 852.598 920.641, 853.213 904.575 C 853.678 892.422, 853.633 879.925, 853.105 875.056 C 852.454 869.049, 851.701 866.254, 850.495 865.373 C 849.562 864.691, 849.077 863.684, 849.416 863.136 C 849.755 862.587, 849.620 861.883, 849.117 861.572 C 848.613 861.261, 847.649 858.642, 846.973 855.753 C 846.298 852.864, 845.058 849.712, 844.218 848.750 C 842.942 847.289, 840.935 847, 832.051 847 C 824.180 847, 817.520 846.214, 806.456 843.979 C 798.230 842.317, 787.900 840.307, 783.500 839.512 C 779.100 838.717, 773.250 837.355, 770.500 836.487 C 767.750 835.618, 762.670 834.752, 759.212 834.563 C 754.662 834.314, 752.520 834.623, 751.462 835.681 M 658.972 882.355 C 657.031 882.985, 653.213 884.818, 650.487 886.429 C 647.761 888.041, 645.074 889.750, 644.516 890.227 C 643.957 890.704, 641.925 891.966, 640 893.030 C 638.075 894.095, 632.339 896.999, 627.254 899.483 C 622.168 901.967, 617.426 904, 616.715 904 C 616.004 904, 613.658 904.900, 611.500 906 C 609.343 907.100, 602.879 909.176, 597.137 910.614 C 588.589 912.754, 584.568 913.206, 574.947 913.107 C 568.484 913.040, 560.842 912.539, 557.965 911.993 C 554.004 911.242, 551.614 911.339, 548.117 912.393 C 545.578 913.158, 541.185 914.958, 538.355 916.392 C 535.525 917.827, 532.682 919, 532.038 919 C 531.394 919, 529.299 920.195, 527.384 921.656 C 525.468 923.118, 522.744 926.286, 521.331 928.698 C 518.856 932.922, 518.780 933.531, 519.270 945.291 C 519.706 955.731, 520.199 958.534, 522.675 964.639 C 524.268 968.566, 526.048 972.391, 526.630 973.139 C 527.213 973.888, 527.969 975.285, 528.311 976.244 C 528.653 977.204, 530.410 978.892, 532.216 979.996 C 534.022 981.100, 536.005 981.814, 536.622 981.582 C 537.239 981.351, 539.754 980.859, 542.211 980.491 C 545.623 979.979, 547.054 980.197, 548.268 981.411 C 549.142 982.285, 550.452 983.002, 551.179 983.004 C 551.905 983.006, 553.990 983.916, 555.810 985.026 C 557.631 986.136, 559.768 988.594, 560.560 990.490 C 561.352 992.385, 562.001 995.188, 562.002 996.718 C 562.002 998.248, 562.790 1001.048, 563.752 1002.939 C 564.894 1005.186, 566.366 1006.512, 568 1006.766 C 569.375 1006.980, 599.300 1007.007, 634.500 1006.827 C 669.700 1006.647, 704.463 1006.500, 711.751 1006.500 C 721.392 1006.500, 725.001 1006.173, 725.001 1005.300 C 725 1004.640, 724.390 1003.740, 723.644 1003.300 C 722.898 1002.860, 721.498 1000.814, 720.532 998.754 C 719.566 996.694, 716.914 993.673, 714.638 992.041 C 712.362 990.408, 709.956 988.607, 709.292 988.037 C 708.628 987.466, 707.856 987, 707.576 987 C 707.296 987, 702.588 984.151, 697.113 980.668 C 691.638 977.186, 684.839 972.573, 682.004 970.418 C 679.169 968.263, 675.083 963.861, 672.925 960.636 C 670.766 957.411, 668.944 954.148, 668.875 953.386 C 668.806 952.624, 668.713 951.438, 668.668 950.750 C 668.622 950.063, 669.187 947.700, 669.923 945.500 C 670.659 943.300, 671.592 941.050, 671.998 940.500 C 672.404 939.950, 673.502 937.149, 674.439 934.276 C 675.699 930.416, 676.034 926.762, 675.724 920.276 C 675.493 915.449, 674.759 908.350, 674.093 904.500 C 673.427 900.650, 672.186 895.250, 671.335 892.500 C 670.485 889.750, 668.688 886.038, 667.343 884.250 C 665.998 882.462, 664.359 881.047, 663.699 881.105 C 663.040 881.163, 660.912 881.725, 658.972 882.355 M 863.550 917.250 C 863.338 917.938, 862.939 921.952, 862.665 926.171 C 862.271 932.237, 861.417 935.421, 858.583 941.392 C 856.612 945.545, 855 949.827, 855 950.907 C 855 951.988, 857.034 955.713, 859.520 959.186 C 862.006 962.659, 865.995 969.550, 868.384 974.500 C 870.773 979.450, 873.303 985.300, 874.005 987.500 C 874.707 989.700, 876.559 994.200, 878.121 997.500 C 879.682 1000.800, 881.849 1004.941, 882.936 1006.701 C 884.022 1008.462, 886.322 1010.632, 888.046 1011.524 C 889.770 1012.415, 891.785 1012.913, 892.524 1012.629 C 893.511 1012.250, 892.567 1009.781, 888.958 1003.307 C 886.257 998.463, 881.154 988.092, 877.616 980.261 C 874.079 972.429, 869.693 964.104, 867.870 961.761 C 866.047 959.417, 863.498 956.558, 862.206 955.406 C 859.856 953.313, 859.856 953.313, 862.771 948.906 C 864.373 946.483, 866.481 941.590, 867.455 938.034 C 868.668 933.603, 869.031 929.924, 868.611 926.345 C 868.273 923.472, 867.559 919.970, 867.023 918.561 C 866.488 917.152, 865.574 916, 864.993 916 C 864.412 916, 863.763 916.563, 863.550 917.250 M 762.496 989.007 C 762.153 989.561, 762.464 990.198, 763.187 990.424 C 763.909 990.649, 765.732 991.103, 767.237 991.432 C 768.743 991.762, 770.749 993.213, 771.695 994.658 C 772.806 996.353, 773.431 999.343, 773.458 1003.092 C 773.481 1006.287, 774.014 1009.415, 774.643 1010.043 C 775.500 1010.901, 776.438 1010.759, 778.393 1009.478 C 780.396 1008.166, 781 1006.943, 781 1004.201 C 781 1002.238, 780.061 998.691, 778.913 996.320 C 777.765 993.948, 775.679 991.106, 774.278 990.004 C 772.624 988.703, 770.219 988, 767.424 988 C 765.056 988, 762.838 988.453, 762.496 989.007 M 531 991.051 C 531 991.629, 532.544 992.747, 534.432 993.536 C 536.319 994.324, 538.232 995.539, 538.682 996.235 C 539.132 996.931, 539.725 1001.550, 540 1006.500 C 540.462 1014.807, 540.668 1015.524, 542.682 1015.811 C 544.120 1016.015, 545.271 1015.362, 546.055 1013.897 C 546.775 1012.552, 547.033 1009.612, 546.708 1006.464 C 546.413 1003.599, 545.275 999.510, 544.181 997.378 C 543.086 995.245, 540.841 992.712, 539.191 991.750 C 537.541 990.788, 535.023 990, 533.596 990 C 532.168 990, 531 990.473, 531 991.051 M 1187.011 1007.487 C 1186.250 1008.404, 1186.045 1010.034, 1186.476 1011.737 C 1186.860 1013.257, 1187.572 1016.922, 1188.057 1019.883 C 1188.704 1023.832, 1188.512 1027.379, 1187.339 1033.203 C 1186.203 1038.840, 1186.050 1041.450, 1186.810 1042.210 C 1187.570 1042.970, 1190.485 1042.041, 1196.871 1039.007 C 1201.817 1036.656, 1206.557 1035, 1207.405 1035.325 C 1208.253 1035.651, 1209.297 1035.319, 1209.724 1034.588 C 1210.151 1033.857, 1213.725 1031.850, 1217.668 1030.129 C 1221.610 1028.408, 1225.533 1027, 1226.386 1027 C 1227.279 1027, 1227.717 1026.426, 1227.418 1025.647 C 1227.133 1024.903, 1224.783 1023.303, 1222.197 1022.092 C 1219.610 1020.881, 1215.700 1018.339, 1213.508 1016.445 C 1211.316 1014.550, 1208.899 1013, 1208.137 1013 C 1207.375 1013, 1203.263 1011.425, 1199 1009.500 C 1194.737 1007.575, 1190.573 1006, 1189.747 1006 C 1188.921 1006, 1187.690 1006.669, 1187.011 1007.487 M 694.956 1035.030 C 697.309 1037.045, 698.737 1037.663, 699.433 1036.967 C 700.129 1036.271, 700.112 1035.401, 699.380 1034.240 C 698.774 1033.281, 696.817 1032.434, 694.902 1032.303 C 691.500 1032.071, 691.500 1032.071, 694.956 1035.030 M 888.481 1034.439 C 887.391 1035.263, 885.487 1035.951, 884.250 1035.968 C 882.931 1035.987, 882 1036.621, 882 1037.500 C 882 1038.325, 882.563 1039.053, 883.250 1039.118 C 883.938 1039.184, 884.725 1039.195, 885 1039.144 C 885.275 1039.093, 887.300 1038.407, 889.500 1037.619 C 891.700 1036.831, 893.500 1035.588, 893.500 1034.857 C 893.500 1034.126, 892.816 1033.396, 891.981 1033.235 C 891.145 1033.074, 889.570 1033.616, 888.481 1034.439" stroke="none" fill="currentColor" fill-rule="evenodd"/></svg>