<?xml version="1.0" encoding="UTF-8"?> <svg xmlns="http://www.w3.org/2000/svg" width="1374" height="716" viewBox="0 0 1374 716" fill="none"> <path d="M743.6 151.5C742.5 150.7 741.4 149.8 740.1 148.8C741 148.1 741.5 147.3 742.1 147.3C743.8 147.1 744.9 148.5 746.5 149.9C745.3 150.6 744.6 151 743.6 151.5ZM749 144.1C751.6 144.2 754.1 143.6 756.3 142.2C759.3 140.4 760.7 137.6 760.4 134.1C760.1 131 759 128.3 756.6 125.6C754.1 127.2 751.8 128.5 749.7 130.1C747.8 131.5 746.3 133.3 745.6 135.6C745.2 137.2 744.9 138.9 745 140.5C745.2 142.9 746.6 143.9 749 144.1ZM751.5 150.3C747.5 155 748.2 160.4 753.1 164.2C756 166.4 759.3 167.6 762.8 168.3C766 169 767.5 168.2 768.1 165C768.8 161.5 769.2 157.8 769.5 154.2C769.7 151.8 768.8 150.9 766.3 150.4C764.7 150 763 149.9 761.3 149.6C761 148.3 760.7 147 760.3 145.2C756.4 145.8 753.7 147.8 751.5 150.3ZM643.3 108.8C644.6 107 645.6 105.5 646.7 103.8C645.7 102.7 645 101.8 644.1 101.1C642.8 100.2 641.8 100.5 640.6 101.7C639.6 102.7 639.4 103.7 640.2 104.9C641.1 106.1 642.1 107.3 643.3 108.8ZM658.9 104.6C655.8 102.2 655.2 102.4 652.8 105.5C653.7 106.1 654.6 106.8 655.6 107.5C656.8 106.5 657.8 105.6 658.9 104.6ZM941.7 165.5C941.7 164.5 941.8 163.5 942.1 162.6C942.9 160.1 944.6 159 947.2 159.6C948.6 159.9 949.9 160.5 951.3 161C953.7 161.8 954.1 161.8 956.5 161C956.8 158.3 954.9 156.8 953.7 154.7C960.5 151.9 967 151.3 973.6 154.1C975.6 154.9 976.4 156.8 976.6 159C974.4 162.1 971.4 162.8 967.6 161.7C968.7 164.4 971.4 164.8 972.7 166.9C972.2 167.4 971.7 167.9 971 168.3C968 170.2 965 172.1 961.9 173.9C960.4 174.7 959.6 175.7 959.5 177.5C959.4 180.4 958.5 181.2 955.6 181.1C954.2 181.1 952.7 180.8 951.4 180.3C945.9 178.1 941.6 171.4 941.7 165.5ZM966.7 161.6C966.8 161.7 966.8 161.8 966.9 161.8C966.9 161.8 967 161.6 967.1 161.6C967 161.5 967 161.4 966.9 161.4C966.8 161.4 966.7 161.5 966.7 161.6ZM982.8 150.2C984.1 150.7 985.6 150.9 987 150.7C990.9 150.2 994.1 148.1 996.8 145.4C998.3 143.9 999.7 142.2 1000.4 140C1000 139.9 999.8 139.7 999.6 139.7C994.8 141.1 990 142.4 985.3 144C984 144.5 982.8 145.8 981.9 147C980.8 148.3 981.3 149.7 982.8 150.2ZM770.7 181.6C776.2 179.9 781.7 178.3 787.2 176.6C788.3 176.3 789.3 175.8 790.2 175.2C792.7 173.7 793.3 171.4 791.6 169C790.7 167.6 789.3 166.4 787.9 165.3C785.8 163.6 783.4 162.1 781.2 160.5C779.8 159.4 778.8 159.6 778 161.1C777.6 161.8 777.4 162.6 777.1 163.3C775.1 168.5 773 173.7 770.9 179C770.6 179.8 770.4 180.6 770.1 181.4C770.5 181.5 770.7 181.7 770.7 181.6ZM1357.5 408.4C1358 410 1358.6 411.6 1359.2 413.1C1359.9 414.5 1360 416.2 1361.2 417.5C1364 415.3 1365 413.4 1364.5 410C1364.1 406.9 1363.3 403.9 1362.6 400.7C1357.5 401.9 1356.2 404 1357.5 408.4ZM603.7 75.3001C605.5 75.5001 607.4 75.6001 609 75.7001C609.4 75.2001 609.6 75.0001 609.6 74.8001C609.7 74.4001 609.6 74.1001 609.7 73.3001C606.8 72.5001 604.2 70.0001 601 72.3001C601.2 74.2001 602 75.2001 603.7 75.3001ZM982.6 195.6C986.1 193.6 989.6 191.6 992.8 189.7C993.7 187.3 993 185.9 991.1 185.2C989.3 184.5 987.3 184 985.4 183.9C980.9 183.8 979 185.7 978.7 190.2C978.5 193.1 980.4 194.2 982.6 195.6ZM603.3 80.7001V82.4001C606.8 82.9001 610.1 83.5001 613.3 84.0001C614.7 84.2001 616 83.8001 616.5 82.3001C616.1 80.9001 615.2 80.1001 613.8 80.1001C610.5 80.1001 607.2 80.1001 603.9 80.2001C603.7 80.2001 603.5 80.5001 603.3 80.7001ZM1354.4 571.8C1352.6 575.9 1352.8 580 1354.4 584.1C1354.8 585.1 1355.5 585.5 1357.1 585C1357.8 581 1358.6 577 1359.2 573C1359.4 571.6 1359.1 570.4 1358 569.4C1355.3 570.1 1355.1 570.2 1354.4 571.8ZM1355.93 393.75C1358.46 393.13 1359.33 388.97 1359.5 388.2C1359.74 387.04 1359.61 384.61 1357.7 377.7C1356.1 371.9 1353.1 366.7 1349.2 362C1348.6 361.2 1347.9 360.5 1347.3 359.7C1345.4 357.3 1344.7 354.9 1345.8 351.9C1346.5 350 1347 347.9 1347.3 345.8C1347.7 343.2 1346.8 341 1344.6 339.4C1344.5 339.3 1344.4 339.3 1344.3 339.2C1337.5 334.5 1336 327.8 1338.3 320.1C1338.8 318.3 1339.6 316.6 1340.2 314.8C1341.5 310.7 1339.8 307.8 1335.5 307C1327.9 305.6 1324 300.3 1321.1 293.9C1320.2 292.1 1320.9 290.4 1322.3 289.1C1323.2 288.2 1324.3 287.6 1325.2 286.8C1327.2 285 1327.1 283.1 1324.7 281.7C1323.7 281.1 1322.7 280.6 1321.6 280.4C1318.5 279.6 1315.4 279 1312.2 278.4C1311.2 278.2 1310.2 278 1309.2 277.9C1307 277.6 1305.6 276.5 1304.6 274.5C1303.7 272.7 1302.7 271 1301.6 269.2C1299.8 269.8 1298.6 270.8 1297.6 272.2C1297.1 272.9 1296.6 273.7 1296 274.3C1295.1 275.2 1294 275.3 1293 274.4C1292.2 273.7 1291.6 272.9 1291 272.1C1284.9 263.3 1278.9 254.5 1272.9 245.7C1270.8 242.6 1271.3 237.6 1274.2 235.1C1276.6 233.1 1277.3 230.6 1277 227.7C1276.7 225.2 1276.3 222.8 1276 220.4C1275.9 219.7 1275.9 219.1 1275.9 218.3C1276.5 218.2 1276.9 218.1 1277.3 218.1C1280.5 218 1281.3 217.5 1281.4 214.3C1281.5 209.8 1281.8 205.4 1283.1 201.1C1283.6 199.3 1284.3 197.5 1285.1 195.8C1286.8 192.5 1289.5 190.2 1293.2 189.4C1293.7 189.3 1294.3 189.2 1294.8 189C1296.5 188.4 1297.1 187.5 1296.9 185.7C1296.8 184.7 1296.5 183.8 1296.2 182.8C1293.4 173.1 1290.4 163.5 1287.8 153.7C1285.7 146.2 1284.5 138.5 1284.1 130.7C1283.9 126.4 1282.5 122.4 1280.5 118.6C1279.9 117.5 1279.4 116.3 1278.7 114.9C1279.7 114 1280.6 113.2 1281.5 112.4C1284.2 109.8 1286.9 107.2 1289.5 104.5C1292.2 101.8 1290.6 99.4001 1287.6 98.6001C1282.9 97.4001 1278.1 97.2001 1273.6 99.3001C1271 100.6 1268.6 100.6 1266.1 98.9001C1262.8 96.6001 1259.7 96.8001 1256.2 98.9001C1252 101.5 1247.4 103.7 1243.1 106C1241.3 103.9 1241 102.7 1242.4 101C1243.3 99.9001 1244.4 99.1001 1245.4 98.3001C1250.4 94.4001 1251.9 89.9001 1250.2 83.9001C1248.2 77.1001 1243.8 72.8001 1236.8 71.5001C1234.3 71.0001 1232.1 70.1001 1230.3 68.3001C1228.4 66.4001 1228.3 63.7001 1230 61.7001C1231.1 60.4001 1232 60.2001 1233.5 60.9001C1234.3 61.3001 1235 62.0001 1235.8 62.3001C1237.3 62.9001 1238.8 63.7001 1240.4 64.0001C1242.8 64.4001 1244.8 63.2001 1245.9 61.1001C1246.6 59.7001 1246.9 58.2001 1247.4 56.7001C1248.2 54.4001 1248.8 52.0001 1249.8 49.8001C1250.9 47.3001 1253 46.2001 1255.8 46.6001C1256.6 46.7001 1257.3 47.0001 1258.1 47.0001C1260 47.1001 1261.9 46.9001 1263.3 45.4001C1267.9 40.6001 1272 35.3001 1276.1 29.8001C1275.4 28.7001 1274.8 27.7001 1274.2 26.7001C1273.1 26.6001 1272.2 26.6001 1271.3 26.5001C1271.1 26.2001 1270.9 26.0001 1270.8 25.7001C1270.4 23.6001 1269 22.9001 1267 22.6001C1264.3 22.2001 1261.5 21.7001 1258.8 21.2001C1257.6 21.0001 1256.4 20.6001 1254.9 20.3001C1255.3 19.1001 1255.6 18.2001 1256 17.3001C1257 15.3001 1257.1 13.3001 1256.4 11.2001C1255.5 8.5001 1254.6 5.7001 1253.6 3.0001C1253.3 2.1001 1252.5 1.4001 1251.9 0.600098H1251.2C1247 3.2001 1242.8 6.0001 1239.2 9.6001C1236.1 11.5001 1234 14.0001 1232.8 17.4001C1231.8 20.3001 1230.6 23.1001 1229.5 25.8001C1230 27.5001 1231.3 27.5001 1232.5 27.7001C1234.8 28.0001 1236.8 28.8001 1238.5 30.3001C1238.4 32.3001 1237.1 32.7001 1235.5 32.7001C1232.8 32.8001 1230.2 32.8001 1227.5 32.8001H1219.2C1217.3 32.8001 1215.7 33.4001 1214.9 35.3001C1214.2 36.9001 1212.9 37.8001 1211.4 38.6001C1198.9 45.3001 1186.8 52.8001 1174.7 60.3001C1167.7 64.7001 1161.9 70.1001 1157.7 77.3001C1153.4 84.7001 1149 92.0001 1144.7 99.4001C1141.7 104.5 1143.2 107.3 1149 108.2C1151 108.5 1153 108.9 1154.9 109.3C1155.8 109.5 1156.6 109.8 1157.4 110.2C1160.9 112 1161.1 116.1 1157.9 118.3C1157.1 118.9 1156.2 119.3 1155.2 119.5C1151.3 120.4 1147.4 121.4 1143.5 122.1C1140.7 122.6 1138.8 123.9 1137.4 126.2C1136.9 126.9 1136.5 127.7 1136.1 128.5C1134.3 132.1 1131.9 135.2 1128.5 137.6C1123.5 141.2 1120.8 146.2 1120.9 152.4C1120.9 156.5 1118.9 158.9 1115.5 160.4C1114.2 161 1113 161.4 1111.7 161.8C1108.7 162.7 1106 162.2 1103.5 160.3C1098.8 156.7 1093.4 155.9 1087.7 156.9C1083 157.7 1079.2 160.1 1076.7 164.2C1075.2 166.5 1074 169 1072.7 171.5C1071.5 173.7 1070.6 175.9 1069.3 178C1067 181.8 1063.7 184.6 1059.1 185.3C1053 186.2 1047 186.9 1040.9 187.7C1040.2 187.8 1039.4 187.6 1038.3 187.5C1038.2 186.5 1038 185.5 1037.9 184.6C1037.7 182.1 1037.1 181.6 1034.6 181.6C1028.9 181.7 1024.5 185.7 1023.8 191.4C1023.6 193.2 1023.5 195.1 1023.3 197C1023 199.3 1022 201.2 1020.4 203.1C1018.5 201.5 1017.7 199.4 1016.2 197.8C1015.8 197.9 1015.5 197.9 1015.2 198C1013.4 199 1011.9 198.7 1010.7 197.2C1009.1 195.3 1007 195.3 1004.9 196C1000 197.6 995.9 200.4 992.7 204.4C989.6 208.3 989.3 212.5 991.9 216.8C992.9 218.4 994.1 219.9 995.1 221.5C997.4 225 997.2 226.4 994 229.1C993.1 229.8 992.3 230.5 991.4 231.3C992.1 233 992.8 234.7 993.4 236.3C992 238.5 990.2 239.1 987.9 238.7C986.3 238.4 984.6 238 983 237.7C981.9 237.5 980.8 237.5 979.7 237.5C977.7 237.5 976.3 238.4 975.6 240.3C975.2 241.6 974.8 242.9 974.3 244.1C972.9 247.3 971 248.4 967.5 248C965.5 247.8 963.6 247.4 961.5 247.1C961 250.2 961 253 961.5 255.7C961.7 257.3 962.2 258.9 962.3 260.6C962.6 264.5 960.8 266.3 957 266C952.8 265.7 949 264.1 945.7 261.5C944.6 260.6 943.7 259.4 943.1 258.1C942 256 940.8 254.4 938.3 253.9C937.4 253.7 936.5 252.8 935.7 252.3C935.8 250.1 937.7 248.4 936.6 246.6C935.7 245 934.2 243.8 932.5 241.8C932.1 236.7 927.8 234.2 923.1 232.1C921.3 231.3 919.6 231.4 918.1 232.7C915.5 234.9 912.4 235.6 909.1 235.6C907.8 235.6 906.6 235.6 905.4 235.7C901.8 236 900.6 237.6 901.4 241C901.6 241.7 901.9 242.5 902.1 243.2C903.1 246.9 902.5 248.8 899.3 250.9C894.3 254.2 888.7 255.5 882.8 254.8C880.8 254.6 878.7 254 877.2 252.8C869.6 246.8 855.3 249.5 850.6 259.5C850.4 259.8 850.2 260.1 850 260.3C848.6 260.6 848 259.5 847.2 258.8C842.1 254.1 840.3 253.9 834.3 257.5C832.1 258.8 829.7 259.8 827.4 260.9C824.5 262.3 821.9 263.9 820.4 266.8C820.1 267.4 819.5 268 818.8 268.3C815.7 269.8 812.4 271.3 809.2 272.8C809.1 272.8 808.8 272.7 808.4 272.6C808.5 272.1 808.5 271.5 808.8 271.1C809.5 270 810.1 268.8 811 267.8C818.6 258.9 825 249.2 831.5 239.5C833.1 237.3 834.8 235.1 836.4 232.8C837.1 231.9 837.7 231.1 838.3 230.1C840.4 226.6 840.1 224.7 837.4 221.7C836.3 220.5 835.3 219.1 834.6 218.2V217.3C836.1 213.2 835.9 212.1 832.3 209.9C828.9 207.8 825.4 205.9 821.8 204.2C817.4 202.2 813.4 203.2 810 206.7C809.1 207.6 808 208.3 807.2 209C805.3 208.7 804.8 207.6 804.5 206.4C803.8 203.1 801.8 201.3 798.5 200.5C796.9 200.1 795.4 199 793.6 198.1C794.5 196.2 795.2 194.6 795.9 193.1C795.1 191.2 793.7 190.8 792.1 190.7C789.6 190.6 787.5 191.6 785.8 193.3C782.5 196.5 780.7 200.4 780.5 205.1C780.4 206 780.5 206.9 780.6 207.8C780.8 211.3 780.1 212.2 776.7 213.4C775.3 213.9 774 214.5 772.7 215.1C768.1 217.3 763.5 219.5 758.9 221.7C756.2 223 754 222.5 751.9 220.5C749.7 218.4 748.5 218.3 746.3 220.2C741.6 224.3 736 226.3 730.1 227.7C728.6 228 727.1 228.5 725.6 229C717.2 231.8 712.9 237.3 712.4 246.2C712.2 248.3 712.4 250.4 712.3 252.5C712.2 254.1 712 255.7 711.5 257.1C710.6 259.7 708 261.1 705.6 259.7C701.3 257.2 696.6 257.5 692 257.5C687.9 257.5 683.8 257.5 679.7 257.6C678.8 257.6 677.7 257.7 676.8 258C675.5 258.4 674.5 259.3 674.5 260.9C674.4 264.2 674.2 267.6 674.2 270.9C674.2 273.8 675.2 276.5 676.8 279C677.3 279.8 677.8 280.7 678.4 281.5C682.1 286.3 682.7 291.8 681.5 297.6C680.4 302.7 679.7 307.9 678.8 313C678.1 317.6 677.8 322.1 680.2 326.3C680.4 326.6 680.3 327.1 680.4 327.5C679.5 328.9 678.3 328.7 677.1 328.4C676 328.1 674.9 327.7 674.6 326.5C673.7 323.4 672.8 320.3 672.2 317.2C671.8 315.1 672.2 313 673.3 311.1C674.4 309.1 674.3 307.4 673.3 305.4C670.4 299.8 670.9 298.5 676 294.9C676.7 294.4 677.4 293.8 678 293.2C678.2 293 678.3 292.6 678.5 292.2C677.9 290.3 676.3 289.5 674.7 288.8C671.5 287.5 669.1 285.4 667.3 282.4C665 278.5 661.6 275.9 657.3 274.5C656.9 274.4 656.4 274.3 655.7 274.2C655.2 275.5 654.6 276.8 654.2 278.2C653.1 282.1 651.8 282.6 648.7 280.2C648.1 279.8 647.5 279.3 646.8 279C645.6 278.5 644.4 278 643.4 279.2C642.5 280.4 642 281.8 642.8 283.2C643.4 284.2 644.1 285.1 644.8 285.9C646.4 287.8 648.2 289.7 649.9 291.6C651.4 293.3 651.3 293.5 650.6 296.3C648.6 296.8 647 296 645.4 294.9C643.4 293.5 641.5 292 639.4 290.7C636.3 288.7 634.9 285.9 635.6 282.2C636 279.8 636.7 277.4 637.4 275.1C637.8 273.5 638.3 271.9 639 269.8C638 270.2 637.5 270.4 637 270.7C634.5 272 632.1 273.4 629.6 274.6C624.9 277 622.9 280.2 623.8 285.4C624.9 291.5 623.4 296.6 619.7 301.3C617.3 304.5 615.5 308.1 614.2 311.9C613.9 312.8 613.6 313.8 613.5 314.8C613.2 316.9 614.1 318.5 616 319.4C617.6 320.1 619.3 320.6 621 321.1C624.1 321.9 626.9 323 629.3 325.2C634.8 330.2 635.8 337.5 632 344.3C630.133 347.567 630.4 350.633 632.8 353.5C634.8 355.9 636.4 358.5 638.2 361.8C637.1 361.6 636.5 361.6 636 361.3C633.5 359.8 631.1 358.2 628.7 356.6C625.9 354.8 624.6 352.1 625.3 348.9C625.8 346.7 626.8 344.5 627.5 342.3C629.1 337.4 627.6 332.8 623.5 330C619.3 327.2 614.8 328.5 613 333.3C612.4 334.8 612.1 336.5 611.6 338.1C609.8 344.3 606.5 349.5 601.1 353.1C597 355.8 592.7 358.4 588.2 360.6C581.3 364 574.7 362.6 568.6 358.6C565.4 356.5 563.6 353.4 564.3 349.1C567 349.1 569 350.3 571.1 351.6C571.7 352 572.3 352.5 572.9 353C575.3 354.9 577.8 355 580.3 353.3C582.2 352 583.8 350.6 585.6 349.2C589 346.5 592 343.3 595.8 341.1C597.6 340.1 598.6 338.3 598.9 336.2C599 335.2 599.3 334.2 599.8 333.4C602.1 329.7 603.4 325.7 603.3 321.4C603.2 317.5 604.1 313.9 605.6 310.4C608.2 304.4 610.7 298.3 613.3 292.3C614.5 289.5 615.2 286.7 614.8 283.6C614.3 279.7 615.7 276.2 617.7 272.9C619.5 270 621.3 267.2 622.9 264.3C623.8 262.8 624.5 261.1 625 259.4C626 256.4 625 253.9 622.6 252C620.6 250.4 618.3 249.5 615.9 249.1C613.8 248.8 611.9 249.5 610.4 250.9C608.5 252.5 606.8 254.2 605.1 256C601.1 260.3 596.9 264.1 591.9 267.2C590.1 268.3 588.4 269.7 586.9 271.1C584.6 273.2 583.2 275.9 583 279C582.9 280.8 582.2 282.2 581.4 283.7C580.1 286.1 578.8 288.6 577.6 291.1C576.4 293.5 575.8 295.8 578.1 298.1C578.7 298.7 579 300.1 578.8 300.9C577.9 304.3 578.3 307.8 578.2 311.2C578.1 315.5 576.4 318 571.8 319.8C571 319 569.8 318.2 569.2 317.1C565.8 311.4 562.6 305.7 559.4 300C558.9 299.1 558.7 298.1 558.5 297.1C557.1 291.1 554 286.2 549.5 282.2C546.8 279.8 543.7 277.8 540.7 275.7C540.1 275.3 539.5 275 538.9 274.8C536.5 273.9 534.7 274.9 534.2 277.4C534 278.1 534 278.7 534 279.4C533.7 283.8 531.4 286.6 527.1 287.7C525.8 288 524.5 288.4 523.2 288.5C521.1 288.7 520.1 287.8 519.9 285.7C519.8 284.6 520 283.5 519.9 282.4C519.7 280.3 519.1 279.6 517 279.5C515.7 279.4 514.5 279.4 513.3 279.5C510.1 279.6 507.1 278.8 504.5 277C501.3 274.8 497.8 274.2 494.1 274.1C492.5 274.1 490.9 273.9 489.5 273.4C486.4 272.3 485.4 269.7 486.7 266.7C487.3 265.4 488.2 264.2 489 263C489.5 262.2 490.4 261.5 489.9 260.2C487.8 259.6 485.7 260.2 483.9 261.1C480.6 262.8 477.7 262.4 474.8 260.4C471.3 258 467.4 257.1 463.1 257.3C454 257.8 444.9 258.1 435.8 258.7C430.7 259.1 428 257.2 426.7 252.1C425.6 248 426.3 244.4 429.3 241.3C431.5 239 434.2 238.3 437.2 239.6C437.6 239.8 438 240 438.4 240.2C440.7 241.1 442.1 240.7 443 238.5C444 236 444.8 233.3 445.4 230.6C445.8 229 445.3 227.5 443.7 226.6C442.2 225.7 440.6 225.5 439.1 226.7C437.1 228.3 434.9 229.9 433 231.7C431.7 232.9 430.5 234.1 428.8 234.8C423.8 236.7 420.5 240.3 418.8 245.3C417.5 249 414.9 251.2 411.1 251.9C409.8 252.2 408.4 252 407.2 251.6C405.4 251.1 404.7 249.8 404.8 247.8C404.9 243.7 403.9 242 399.9 241.2C394.1 240.1 388.1 239.1 382.2 238.3C378.1 237.8 376.3 239.1 375 243.1C374.1 245.7 372.4 247.5 370.5 249.2C368.9 250.5 367.7 250.5 365.9 249.4C364.1 248.3 362.9 246.7 362.4 244.7C361.7 241.7 361 238.6 360.3 235.6C359.8 233.2 359 230.9 357.3 228.9C354.3 230.8 352.3 233.2 352.4 237C352.6 240 350.8 242.2 348.7 244.1C347.3 245.3 346.2 245.4 344.8 244.3C343.1 242.9 341.4 241.4 340 239.7C338.3 237.6 337.8 235.1 338.8 232.5C339.9 229.7 340.4 226.8 340.6 223.8C341.1 217.8 344.3 213.3 349.3 210C350.6 209.1 352 208.3 353.4 207.7C356.8 206.2 358.4 203.6 359.2 200.1C360.5 194.5 362.1 188.9 363.7 183.4C364.5 180.6 364.7 180.6 367.6 178.5C368.6 179.6 368.7 181 368.9 182.4C369.8 187.8 370.6 193.1 371.5 198.5C372.5 204.2 374.1 209.8 376.4 215.1C378.3 219.4 380.8 223.3 384.2 226.6C387.8 230.1 391.9 231.3 396.7 229.5C399.4 228.5 402.1 227.5 404.8 226.5C409.2 224.9 411.3 221.7 411.4 217.1C411.5 211.4 411.6 205.6 411.3 199.8C410.9 190.9 410.2 182.1 409.7 173.2C409.6 169.8 408.3 167 406.4 164.3C406 163.7 405.5 163.1 405 162.5C403 159.8 402.5 156.9 404.2 153.8C404.8 152.8 405.3 151.8 405.7 150.8C406.8 148 406 145.8 403.4 144.3C402.9 144 402.4 143.8 401.9 143.6C398.3 142.2 394.6 140.9 391.1 139.3C387.4 137.7 383.6 137.3 379.7 138.1C374.9 139.1 371.7 141.8 370.8 146.8C370.4 148.5 369.9 150.2 369.3 151.9C368.5 154.2 366.8 155.8 364.4 156.4C362.5 156.9 360.7 157.2 358.8 157.5C353.7 158.2 349.7 160.7 346.8 165C345.9 166.4 344.7 167.8 343.9 169.4C342.1 172.8 339.2 174.9 335.6 176.2C334.5 176.6 333.3 177 332.2 177.5C328.3 179 325.3 181.4 323.2 185.1C321.7 187.9 319.9 190.4 316.5 191.2C315.9 191.4 315.5 192.1 315 192.5C313.1 194.1 311.3 195.7 309.3 197.1C305.7 199.6 303.8 202.7 305 207.3C306 211.3 304.6 213.4 300.7 214.6C294.7 216.5 288.6 217.8 282.3 217.1C273.2 216.2 264.1 215.1 255.1 214.1C253.9 213.9 252.7 213.8 251.5 213.7C249.4 215.5 248.2 217.7 248.2 220.2C248.1 222.7 248.3 225.3 248.7 227.8C249.1 230.1 248.6 232.1 247.8 234.5C247 234 246.4 233.8 246 233.4C244.6 231.8 243.4 230.1 242.1 228.4C238.4 223.7 234.8 222.6 229.2 224.5C221.2 227.2 214 231.2 208.2 237.5C207.1 238.7 205.6 239.5 204 240.7C203.5 238.8 203.2 237.3 202.8 235.8C201 235.5 200.1 236.7 199.1 237.7C194.9 242.1 190.7 246.6 186.4 250.9C184.9 252.4 183.3 253.7 181.6 255C179.1 256.8 178.7 257.8 179.6 260.6C180.8 264.3 182 268 183.2 271.7C183.5 272.7 183.9 273.6 184.3 274.5C187.1 280.4 186.1 284.3 180.6 287.9C175.9 291 172.4 295.2 170 300.4C167.9 305 166.9 309.9 166.4 314.9C166.4 315.6 166.4 316.4 166.3 317.2C165.8 320.9 163.6 322.6 159.8 322.1C156.8 321.7 154.4 320.2 153.2 317.5C151.3 313.4 149 313.2 145.7 316.9C143.6 319.4 141.3 321.7 139.2 324.1C137.2 326.3 137.3 327.5 139.6 329.4C142 331.5 144.5 333.5 147 335.6C147.8 336.3 148.6 337.1 149.4 337.9C154.3 343.2 153.7 349.8 147.9 354.1C146.8 354.9 145.6 355.5 144.5 356.2C141.8 357.8 141.5 359.2 143.3 361.9C144 363 144.8 363.9 145.5 364.9C147.7 368.2 147.6 370.5 145.1 373.4C142.7 376.3 140.6 379.4 139.3 383C141.22 386.08 143.14 389.16 145.06 392.24C144.84 393.82 144.14 397.18 141.54 400.33C141.08 400.89 135.93 407.1 130.74 406.01C127.57 405.34 127.63 402.64 124 401.85C121.11 401.21 120.6 402.83 116.05 402.94C111.52 403.05 110.02 401.5 108.14 402.73C106.3 403.93 106.7 406.1 105.65 408.09C104.32 410.61 100.56 413 90.1699 412.79C85.8899 410.53 83.4899 407.95 82.0899 406C80.6299 403.97 80.2099 402.57 78.3499 401.57C76.2699 400.45 72.6299 399.94 70.7799 401.74C69.4599 403.03 69.2999 405.6 66.6299 407.06C66.4199 407.17 66.3199 407.23 66.1899 407.28C61.7599 408.92 53.7299 393.11 49.9499 394.58C49.6399 394.7 49.1199 395.03 48.7399 396.19C48.1199 396.94 47.2499 397.93 46.0599 399.12C45.9899 399.19 45.9599 399.22 45.9399 399.23C45.5199 399.63 44.3799 400.5 41.4599 401.15C34.7399 402.65 28.8799 401.94 28.8799 401.94C28.1799 401.86 27.0099 401.72 26.4699 402.34C25.4299 403.52 27.1099 406.38 27.1099 406.38L26.1399 411.26C26.1399 411.26 32.4399 418.36 35.9999 416.59C39.5499 414.81 50.2099 428.13 50.2099 428.13C50.2099 428.13 48.4299 430.79 54.2099 430.35C59.9799 429.91 71.4399 430.79 72.5899 433.01C73.7399 435.23 76.4099 437.45 81.7399 436.56C87.0699 435.67 96.2599 437.53 104.39 440.56C112.52 443.59 117.12 449.19 117.12 449.19C117.82 450.29 117.92 451.49 117.02 452.59C116.12 453.59 115.02 453.49 113.92 452.99C111.32 451.89 108.82 450.69 106.32 449.49C104.62 448.69 102.92 447.89 101.22 447.09C99.5199 448.39 98.9199 450.19 98.9199 451.89C98.8199 454.19 97.7199 455.59 95.6199 456.29C94.2199 455.89 92.8199 455.39 91.4199 455.19C89.5199 454.89 87.6199 455.29 85.9199 456.09C85.1199 456.49 84.3199 456.89 83.5199 457.29C80.6199 458.59 78.3199 457.79 76.9199 454.89C76.5199 454.09 76.4199 453.19 76.0199 452.39C74.4199 448.89 70.7199 448.09 67.7199 450.49C66.6199 451.39 65.5199 452.29 64.5199 453.19C63.7199 452.89 63.2199 452.79 62.7199 452.59C62.2199 452.39 61.7199 452.09 61.2199 451.89C58.7199 453.39 56.4199 456.29 53.2199 453.49C52.4199 454.19 52.1199 455.99 50.4199 454.89C49.4199 454.19 48.3199 453.59 47.1199 452.89C46.9299 450.87 46.6499 448.84 46.4499 446.73C46.6099 446.59 46.7799 446.47 46.9499 446.38C46.3299 444.36 45.7199 442.35 44.9799 440.4C44.2699 438.36 44.1099 436.15 42.3999 433.96C42.0999 435.12 41.8999 435.9 41.7299 436.57C41.8499 436.91 41.9199 437.44 42.1099 437.91C43.3999 439.78 43.8799 441.9 44.2899 444.04C43.5099 442.96 42.9199 441.88 42.1299 440.8C41.5299 440 40.9299 439.2 40.1299 438.6C39.1299 437.7 38.0299 436.6 36.8299 436.4C33.0299 435.6 30.2299 432.2 25.7299 432.7C26.0299 434.2 26.3299 435.6 26.6299 437.1C25.3299 438.1 23.8299 438.1 22.4299 438.2C15.4299 438.8 9.42993 441.5 4.02993 445.9C3.02993 446.7 2.12993 448.1 0.429932 447.7V451C2.42993 451.4 4.32993 451.9 6.32993 452.2C7.92993 452.4 9.32993 452.9 10.4299 454.1C12.4299 456.3 14.7299 457.4 17.6299 455.1C21.1299 461.7 19.2299 467.4 15.7299 472.7C18.9299 477.9 23.5299 479.3 28.5299 476.5C30.4299 475.5 32.2299 474.1 33.9299 472.7C37.0299 470.2 40.2299 468.2 44.3299 467.7C47.6299 467.3 50.5299 465.7 52.8299 463.4C54.4299 461.8 56.1299 461.3 58.2299 461.6C59.4299 461.8 60.6299 462 61.8299 462.2C63.4299 462.5 65.1299 462.8 66.7299 463C69.8299 463.3 70.9299 464.3 71.2299 467.3C71.9299 473.4 72.5299 479.4 73.2299 485.5C73.5299 488.8 73.9299 492.2 74.6299 495.4C75.0299 497.5 75.9299 499.5 76.9299 501.3C80.3299 507.6 83.8299 514 86.4299 520.7C87.4299 523.3 88.9299 525.6 90.8299 527.7C94.4299 531.5 96.2299 536.3 97.1299 541.4C97.4299 543.2 97.8299 545.1 98.3299 546.9C99.3299 550.2 101.23 552.9 104.43 554.4C109.33 556.7 111.73 560.7 112.13 566C112.33 568.3 112.13 570.7 112.33 573C112.43 575.6 112.63 578.2 113.23 580.6C114.93 587.6 116.93 594.5 118.83 601.5C120.23 606.8 124.03 609.5 129.63 609.1C132.43 608.9 134.43 607.4 135.23 604.7C135.73 602.9 135.93 601 136.23 599.1C136.93 594.9 137.43 590.7 138.23 586.6C139.13 581.9 140.53 580.7 145.23 579.9C148.23 579.4 151.33 579.7 154.03 578.2C154.53 577.9 155.13 577.5 156.03 577C155.13 576.5 154.63 576.1 154.13 576C152.53 575.6 150.83 575.5 149.33 574.9C147.33 574.2 146.83 573.1 147.03 571C147.13 570.6 147.23 570.1 147.33 569.7C148.03 565.9 148.83 562.1 149.43 558.3C150.03 554.4 150.83 553.4 154.73 552.6C158.53 551.8 162.23 550.7 165.83 549.1C169.53 547.4 173.33 547.7 177.23 548.6C182.03 549.7 186.83 550.5 191.63 551.4C193.83 551.8 195.83 551.7 197.93 550.2C197.73 549.5 197.53 548.8 197.23 548.2C196.93 547.6 196.43 547.1 196.13 546.5C193.93 542.8 194.03 541.1 197.63 538.7C200.03 537 201.33 535 201.43 532.1C201.53 530.4 201.73 528.8 201.73 527.1C201.73 523.2 200.33 520 197.23 517.5C196.73 517.1 196.33 516.8 195.93 516.4C194.73 515.1 194.63 513.1 195.83 511.9C198.03 509.6 198.23 507.3 196.93 504.6C195.63 501.9 196.63 499.7 198.33 497.6C199.23 496.5 200.33 495.9 201.83 496.1C202.23 496.2 202.73 496.2 203.13 496.2C206.13 496.5 208.33 495.3 209.93 492.9C210.63 492 211.13 491 211.73 490.1C214.43 485.9 218.23 483.4 223.33 483.4C225.03 483.4 226.83 483.3 228.63 483.4C231.43 483.6 232.43 484.6 232.53 487.4C232.63 489 232.43 490.5 232.43 492.1C232.43 495 233.63 497 235.53 497.4C237.43 497.9 239.23 496.6 240.53 493.9C243.83 486.9 243.23 488 250.43 486.8C253.63 486.2 256.73 486.5 259.93 487.4C263.73 488.6 267.63 488.6 271.53 487.9C272.53 487.7 273.53 487.6 274.53 487.6C276.33 487.7 277.63 488.6 278.33 490.3C278.63 491.1 278.83 492 279.13 492.8C279.93 494.8 281.03 495.5 283.23 495.5C286.963 495.5 289.197 497.3 289.93 500.9C290.43 503.5 291.43 505.7 293.73 507.3C296.13 508.9 297.33 511.4 297.73 514.3C298.03 516.4 298.13 518.5 298.23 520.6C298.33 522.3 298.23 524.1 298.23 525.9C300.23 526.4 301.43 524.7 303.33 524.7C304.93 526.7 305.83 529.2 306.33 531.8C306.53 532.7 306.53 533.6 306.83 534.4C307.63 536.9 309.43 538.2 311.93 538.5C312.53 538.6 313.03 538.5 313.63 538.5C319.93 538 325.43 540.1 330.53 543.5C331.93 544.5 333.43 545.6 334.83 546.6C337.93 548.8 340.03 551.7 340.93 555.4C341.93 559.4 344.43 561.6 348.63 561.9C351.93 562.1 354.23 564.3 356.63 566.3C358.33 567.7 360.13 568.9 362.43 569.2C363.63 569.3 364.83 569.2 365.83 569.2C367.53 567 367.73 564.9 367.33 562.6C366.63 558.3 365.83 554.1 365.23 549.8C364.93 547.9 364.13 545.9 365.03 543.7C365.83 543.9 366.53 544 367.23 544.2C367.93 544.5 368.63 544.9 369.33 545.2C373.33 546.8 375.03 546.1 376.53 542.1C376.73 541.5 376.93 540.8 377.13 540.2C378.33 537 380.93 535.3 384.33 535.6C386.03 535.8 387.83 536.1 389.53 536.4C390.53 535.6 390.03 534.5 390.03 533.6C389.93 531.2 389.63 528.7 389.73 526.3C389.93 520 392.93 518.4 398.03 521.7C401.03 523.6 404.33 524.8 407.83 525.6C421.33 528.6 434.83 531.8 448.43 534.7C457.03 536.6 465.73 537 474.53 535.1C475.83 534.8 477.43 535 478.73 535.5C480.83 536.2 482.73 537.4 484.73 538.3C486.93 539.3 489.13 540.4 491.43 541.2C494.43 542.3 495.83 543.9 495.53 547.2C495.33 550.3 494.63 553.4 494.03 556.4C493.83 557.6 493.23 558.7 493.03 559.9C492.53 562.5 493.13 563.6 495.63 564.5C496.63 564.9 497.73 565.1 498.83 565.4C500.53 565.9 502.03 566.7 502.63 568.7C503.13 570.5 504.53 571.4 506.13 572.1C507.63 572.7 509.03 573.2 510.43 573.9C513.23 575.4 513.83 576.7 513.33 579.9C513.23 580.6 513.13 581.4 512.93 582.4C519.33 585.4 525.73 587.1 532.33 583.4C538.03 580.3 543.83 580.8 550.03 582.2C549.63 583.7 548.33 584.1 547.43 584.7C544.13 587 543.63 588.7 546.63 591.2C551.53 595.3 553.33 600.9 554.83 606.5C558.23 619.4 561.33 632.4 562.33 645.7C562.43 646.5 562.43 647.4 562.63 648.3C563.13 650.6 563.43 650.8 566.33 652.1C567.03 651.4 567.73 650.6 568.43 649.8C568.83 649.3 569.03 648.7 569.43 648.1C570.93 645.9 572.33 645.7 574.43 647.4C575.63 648.4 576.63 649.6 577.63 650.8C578.63 652 579.43 653.3 580.43 654.5C584.03 658.9 587.33 660.2 592.43 658C598.23 655.5 605.93 658.6 609.53 664.1C610.23 665.2 610.73 666.5 611.03 667.8C611.73 670.9 613.13 673.6 615.03 676.1C617.13 678.9 619.13 681.9 621.13 684.8C622.83 687.3 625.13 688.9 628.23 689.2C634.43 689.7 639.83 691.9 644.33 696.3C646.43 698.4 649.03 699.2 652.03 698.4C657.23 697.1 662.43 695.9 667.53 694.4C670.13 693.7 672.23 692.3 672.63 689.3C672.83 687.3 674.43 686.7 676.13 686.2C682.03 684.5 687.83 682.7 693.73 681C698.53 679.6 703.33 678.2 708.43 678.4C709.53 678.5 710.63 678.4 711.73 678.7C714.63 679.4 717.43 679.7 720.33 679.7C724.33 679.7 727.23 681.7 729.33 685.1C730.23 686.4 730.93 687.8 731.93 689C733.73 691.2 736.03 692.9 738.83 693.5C744.13 694.7 749.53 695.6 754.83 696.6C757.73 697.1 760.43 696.2 762.63 694.4C764.43 692.8 766.23 691.1 767.83 689.3C769.33 687.6 769.53 685.5 768.33 683.4C765.23 678.1 765.73 672.7 768.33 667.5C771.03 662 774.03 656.7 776.93 651.3C777.13 650.9 777.53 650.6 777.93 650.1C779.03 651 780.13 651.8 781.13 652.6C787.13 657.2 793.83 660.3 801.33 661.4C802.13 661.5 802.83 661.7 803.63 661.8C809.63 662.7 814.33 665.7 817.03 671.2C819.43 676 823.23 679.5 827.23 682.9C830.83 685.8 834.73 686.7 839.03 684.7C840.53 684 842.03 683.4 843.53 682.6C848.53 679.9 853.93 678.7 859.53 678.3C864.63 677.9 869.23 679.1 873.03 682.8C873.83 683.5 874.93 684.1 875.93 684.3C880.93 685 885.53 687.1 890.13 689C894.33 690.8 898.53 691.9 903.03 691.8C907.33 691.8 911.53 691.7 915.73 691.8C919.43 691.8 922.83 691 926.03 689.3C931.23 686.4 936.43 683.4 941.63 680.4C943.13 679.5 944.33 678.2 945.13 676.5C947.83 671.1 952.23 667.3 957.33 664.1C960.43 662.1 963.83 661.8 967.13 663.6C971.13 665.8 974.93 665.7 978.83 663.5C981.23 662.1 983.83 662.2 986.33 662.7C988.63 663.2 990.93 663.9 993.13 664.5C994.33 664.8 995.63 665.3 996.93 665.6C999.83 666.3 1002.43 665.9 1004.33 663.3C1006.03 661 1008.03 658.9 1009.63 656.5C1011.63 653.6 1012.63 650.2 1012.23 646.7C1011.23 637.3 1013.33 628.3 1015.73 619.4C1016.53 616.6 1016.93 613.8 1016.23 610.9C1015.53 607.8 1014.13 605.1 1011.63 603C1010.83 602.3 1009.93 601.5 1009.23 600.7C1007.73 599 1007.63 597.6 1008.93 595.9C1010.13 594.4 1011.43 593.1 1012.93 591.9C1016.13 589.3 1019.33 586.9 1021.83 583.5C1023.83 580.8 1026.93 579.7 1030.23 579.3C1039.73 578.2 1049.23 577.1 1058.73 576.1C1062.23 575.7 1065.43 576.5 1068.33 578.9C1071.03 581 1074.03 582.7 1076.93 584.6C1080.53 587 1083.63 589.8 1085.83 593.5C1086.83 595.2 1088.23 596.7 1089.53 598.2C1090.33 599.2 1091.23 600.2 1092.43 601.5C1090.43 602.6 1088.63 603.5 1086.53 604.6C1087.13 605.2 1087.53 605.6 1087.93 605.8C1094.83 609.5 1101.63 613.2 1108.53 616.8C1112.63 619 1116.73 619.5 1120.93 617.1C1121.83 616.6 1123.03 616.5 1124.13 616.5H1140.13C1145.23 616.4 1149.03 618.7 1151.93 622.8C1153.33 624.7 1154.73 626.6 1156.33 628.2C1160.03 631.8 1163.23 632.2 1167.83 629.9C1170.73 628.5 1173.53 626.6 1175.13 623.8C1177.53 619.8 1180.53 616.2 1183.43 612.6C1186.03 609.4 1188.43 606.1 1190.23 602.4C1191.23 600.5 1192.53 598.7 1194.93 597.7C1195.33 598.4 1195.93 598.9 1196.13 599.6C1196.63 601.1 1197.03 602.6 1197.43 604.1C1198.13 606.5 1199.03 608.7 1200.83 610.5C1201.93 611.7 1202.13 613 1201.63 614.5C1201.53 614.9 1201.43 615.2 1201.33 615.5C1200.13 619 1200.63 622.3 1202.33 625.5C1203.83 628.4 1205.33 631.4 1206.83 634.4C1207.83 636.5 1208.23 638.6 1207.93 640.9C1207.73 642.4 1207.63 644 1207.43 645.5C1207.13 648.2 1207.33 650.8 1208.03 653.4C1209.93 660.4 1207.63 664.5 1200.53 665.3C1192.73 666.1 1189.03 675.5 1192.83 681.9C1196.33 687.8 1199.23 694.1 1202.33 700.2C1202.93 701.4 1203.43 702.6 1203.83 703.9C1204.93 707.2 1204.43 710.2 1202.13 712.9C1201.53 713.6 1201.13 714.6 1200.63 715.4H1203.93C1206.63 713.6 1207.73 710.9 1208.13 707.8C1208.43 705.5 1208.83 703.2 1209.43 700.9C1210.13 698.1 1211.33 697.2 1214.23 697.4C1216.13 697.5 1217.93 697.9 1219.83 698.2C1225.33 699.2 1229.83 697.6 1233.63 693.5C1241.43 685.1 1245.63 675.2 1246.53 663.8C1247.13 657.5 1247.83 651.2 1248.43 644.9C1248.53 643.3 1248.63 641.8 1248.63 640.2C1248.63 620.9 1248.73 601.7 1248.53 582.5C1248.43 576 1247.83 569.6 1247.13 563.2C1246.23 555.8 1242.83 549.2 1238.73 543.1C1236.43 539.7 1233.93 536.4 1231.53 533.1C1228.93 529.5 1226.53 526 1224.93 521.9C1223.83 519.2 1223.13 516.4 1223.13 513.5C1223.23 507.8 1221.23 503.1 1217.23 499.1C1213.83 495.6 1210.53 492 1207.03 488.6C1206.23 487.8 1205.03 487.2 1203.93 486.9C1198.23 485.6 1192.63 484.4 1186.93 483.4C1183.83 482.9 1181.63 484.1 1178.43 487.6C1178.83 488.6 1179.23 489.7 1179.63 490.8C1180.03 491.9 1180.63 492.9 1180.63 494C1180.73 495 1180.43 496.3 1179.83 497C1177.83 499.2 1175.53 501.2 1173.33 503.2C1172.83 503.6 1172.13 503.8 1171.33 504.3C1170.43 503.6 1169.53 502.8 1168.63 502C1167.83 501.3 1167.03 500.5 1166.03 499.6C1164.93 501.2 1163.93 502.5 1162.73 504C1161.93 503.5 1161.23 503.1 1160.63 502.5C1159.73 501.6 1158.93 500.7 1158.03 499.9C1155.13 497.5 1151.83 496.8 1148.43 498.6C1145.73 500 1143.33 499.6 1140.73 498.8C1138.73 498.2 1137.93 497.2 1138.23 495.1C1138.53 492.9 1139.13 490.8 1139.63 488.6C1140.53 485.2 1141.53 481.8 1142.23 478.3C1143.93 469.8 1145.13 461.2 1144.73 452.5C1144.43 445.4 1145.03 438.5 1147.63 431.8C1148.13 430.6 1148.03 429.2 1148.23 427.9C1148.73 423.5 1149.13 419.1 1149.83 414.7C1150.73 409.3 1150.33 403.8 1150.13 398.4C1149.83 392.8 1151.73 388 1154.83 383.5C1158.73 377.8 1163.63 373.2 1169.73 369.9C1170.83 369.3 1171.83 368.7 1172.93 368.1C1175.03 366.9 1176.73 365.3 1177.73 363.1C1178.33 361.8 1179.33 361 1180.53 360.4C1187.13 357 1191.13 351.8 1192.23 344.4C1192.73 340.9 1194.43 339.4 1197.93 338.8C1198.73 338.7 1199.53 338.7 1200.23 338.5C1201.93 338.1 1203.43 337.2 1204.03 335.5C1204.73 333.5 1206.13 332.9 1208.03 332.6C1211.83 332 1215.63 331.3 1219.53 330.8C1221.03 330.6 1222.23 329.9 1223.13 328.7C1226.43 324 1229.73 319.2 1233.03 314.5C1233.23 314.3 1233.13 313.9 1233.23 313.2C1232.43 313.2 1231.73 313.1 1231.13 313.4C1229.83 314 1228.73 314.9 1227.43 315.6C1225.23 316.9 1224.13 316.5 1222.93 314.2C1222.53 313.5 1222.23 312.7 1222.03 312C1221.03 308.7 1219.93 305.4 1219.03 302.1C1216.63 293.9 1214.33 285.6 1212.03 277.4C1211.33 274.7 1210.53 272 1210.63 269.2C1210.73 267.1 1211.23 265.2 1212.33 263.5C1213.83 261.1 1215.23 258.8 1216.73 256.4C1218.13 254.2 1219.73 252.3 1222.13 251.1C1222.93 250.7 1223.53 249.8 1224.13 249C1224.83 248.1 1225.53 247.1 1226.03 246.3C1228.03 246 1228.83 247.1 1229.83 248C1231.63 249.5 1233.23 251.2 1235.03 252.7C1236.73 254.1 1238.73 254.6 1240.93 253.5C1241.83 251.5 1241.43 249.6 1241.13 247.6C1240.63 244 1240.03 240.3 1239.63 236.7C1239.13 231.5 1237.13 226.9 1233.93 222.7C1233.53 222.2 1233.23 221.8 1232.83 221.4C1228.73 216.4 1229.43 211.3 1234.73 207.7C1235.43 207.2 1236.23 206.8 1237.13 206.3C1238.73 207.5 1239.53 209.2 1239.93 211C1241.13 216 1243.83 219.8 1247.73 223.1C1250.23 225.3 1252.63 227.6 1254.83 230.1C1257.23 232.8 1258.13 235.7 1256.43 239.3C1254.83 242.5 1255.23 246 1256.33 249.4C1257.13 252 1258.13 254.6 1259.23 257.2C1260.93 261.2 1261.53 265.1 1259.23 269.2C1260.13 271 1260.93 272.8 1261.73 274.6C1263.83 279.1 1266.03 283.6 1267.93 288.2C1271.23 296.3 1271.93 304.6 1268.73 312.9C1268.63 313.2 1268.53 313.5 1268.43 314.1C1269.63 316.2 1271.03 318.5 1272.13 320.9C1273.33 323.4 1274.53 326 1275.33 328.6C1277.03 334.4 1280.03 339.3 1284.73 343.2C1294.53 351.3 1304.13 359.5 1314.13 367.3C1318.83 371 1324.03 374 1329.23 377C1335.73 380.7 1342.13 384.5 1347.73 389.4C1349.13 390.6 1350.53 391.6 1352.03 392.6C1353.55 393.61 1354.78 394.04 1355.96 393.75H1355.93ZM1315.8 578.8C1309.5 577.9 1303.6 575.6 1298 572.6C1296 571.5 1294.4 570.1 1293 568.3C1287.1 560.5 1283.2 551.6 1280.8 542.2C1279.3 536.5 1281.1 534 1287.1 533.1C1290.6 532.6 1294.1 532.2 1298.4 531.7C1297.3 531 1296.8 530.8 1296.3 530.6C1291.1 527.3 1285.8 524.3 1280.8 520.8C1273.3 515.4 1266 509.7 1258.7 504.1C1253.9 500.5 1249 496.9 1243.6 494.3C1242.3 493.6 1241.1 492.8 1239.9 492C1236.6 489.8 1234.7 486.9 1235.5 482.7C1235.9 480.6 1234.9 479.3 1233.1 478.1C1229.8 475.9 1226.5 473.6 1223.6 470.9C1219 466.6 1214.7 461.9 1210.3 457.4C1210 457.1 1209.7 456.7 1209.3 456.5C1208.2 455.9 1207.1 455.8 1206.1 456.5C1205 457.2 1205.1 458.4 1205.3 459.5C1205.5 460.9 1206.7 461.4 1207.7 462.1C1210.1 463.6 1212 465.5 1213 468.3C1213.9 470.8 1213.7 473.2 1212.7 475.5C1211.5 478.4 1211.9 480.8 1213.7 483.3C1214.6 484.6 1215.2 486 1216.1 487.3C1219.7 492.8 1223.3 498.3 1227.1 503.6C1229.1 506.5 1231.8 508.5 1235.3 509.5C1241.1 511.2 1245 515.1 1247.9 520.3C1249.5 523.3 1251.4 526.2 1253.4 529C1258.4 536 1263.8 542.6 1268 550.1C1270.7 555 1274.6 559 1279.2 562.2C1281.8 564 1283.9 566.2 1285.6 568.9C1288.5 573.5 1291.4 578.1 1294.3 582.7C1296 585.3 1297.6 587.9 1298.2 591.1C1298.4 592.2 1299.1 593.4 1299.7 594.4C1301.8 597.9 1304.9 600.4 1308.2 602.7C1309.3 603.5 1310.5 603.4 1312 602.9C1311.8 601.6 1311.5 600.5 1311.4 599.3C1311.2 597.5 1310.9 595.7 1311.1 594C1311.7 590.2 1314.7 587.8 1318.6 587.8C1318.9 588.9 1319.2 590 1319.5 591.1C1323.8 589.8 1324.9 587.5 1323.1 583.9C1321.6 580.9 1319.1 579.3 1315.8 578.8ZM554.9 203C555.6 202.4 556.6 201.8 557.2 201C558.6 199.1 560.4 197.9 562.5 197.1C564.1 196.5 565.6 195.8 567.1 195.1C571.7 192.9 576.4 191.1 581.5 190.1C584.6 189.5 587.8 188.7 590.9 188C598.9 186.3 607 185 615.3 186.3C616.1 186.5 617 186.5 617.9 186.3C622.5 185.5 627 184.6 631.6 183.7C633.9 183.3 635.7 182.1 636.4 179.5C634.8 176.4 633.4 175.3 630.7 175.1C629.3 175 627.7 174.9 626.4 175.3C620.8 176.9 615.2 176.4 609.6 175.3C602.9 173.9 596.2 173.3 589.4 173.8C581.7 174.4 574.7 176.8 568.4 181.3C564.1 184.4 559.9 187.7 555 189.9C552.6 191 550.9 192.9 549.9 195.4C549.3 196.7 549.3 198 550.1 199.2C551.3 200.8 552.5 202.4 554.9 203ZM1366.2 444.4C1367.2 445.3 1368 446.1 1368.9 446.9C1369.7 446.3 1370.2 445.9 1371 445.2C1370 444.1 1369.2 443.2 1368.2 442.1C1367.5 442.9 1366.9 443.6 1366.2 444.4ZM1371.3 514.3C1371.1 516.7 1371.3 519.1 1371.4 521.5C1371.4 521.9 1372 522.2 1372.4 522.7C1373 522.1 1373.4 521.6 1373.8 521.2V511.1C1371.7 511.1 1371.4 512.9 1371.3 514.3ZM1366.2 533.8C1364.3 536.6 1362.2 539.3 1360.6 542.3C1359.8 543.9 1359.6 545.9 1359.4 547.8C1359.2 550.5 1359.3 553.1 1359.2 555.8C1359.1 558.6 1360.3 560.9 1362.1 563.2C1363.9 561 1365.1 558.8 1365.4 556C1366 549.7 1366.2 543.3 1368.4 537.3C1369 535.8 1368.9 534.2 1367.5 532.9C1367 533.2 1366.5 533.4 1366.2 533.8ZM515.8 217.4C519.2 220.5 520.1 224.3 518.9 228.6C518.7 229.4 518.4 230.3 518.1 231.1C517.6 232.5 517.8 233.8 518.8 235.1C521 237.8 523 240.6 525.1 243.3C525.9 244.4 526.9 245.5 527.8 246.6C529.2 245.4 529.2 244.1 529.3 242.8C529.4 239.6 529.5 236.4 529.8 233.2C530.6 224.4 534 216.9 541.1 211.4C542.6 210.2 544 208.7 545.3 207.2C547.6 204.5 547.3 202.6 544.6 200.4C540.8 197.3 536.5 197.3 532.5 200.6C530.5 202.2 528.7 204 526.7 205.6C524.7 207.3 522.4 208.6 519.8 208.6C516.2 208.6 514.3 210.6 513 213.3C513 215.4 514.6 216.3 515.8 217.4ZM103.1 204.6C104.1 205 105.2 205.4 106.3 205.5C111.8 205.8 115.5 208.4 118 213.4C118.9 215.2 120.6 216.7 122.3 217.9C124.2 219.3 126.2 218.6 127.4 216.6C127.8 216 128.2 215.2 128.3 214.5C128.7 211.2 129 207.9 129.2 204.6C129.3 203.1 128.6 201.9 127.2 201.4C124.7 200.6 123.2 198.8 121.9 196.7C121.7 196.2 121.3 195.8 120.9 195.4C118.1 192.8 114.5 193.6 113 197.2C112.6 198.1 112.2 199 111.7 199.9C110.3 202.4 108.1 203.5 105.3 203.2C104.3 203.1 103.4 203 101.9 202.8C102.5 203.7 102.7 204.4 103.1 204.6ZM622 243.5C622.8 242.4 623.3 241.8 623.9 240.9C623.2 240 622.5 239.2 621.6 238.1C620.7 239.2 620.1 240 619.3 241C620.3 241.9 621 242.5 622 243.5ZM535.4 269C538.3 265.2 537.8 260.7 534.3 258.6C531.7 262.8 532 266.2 535.4 269ZM471.2 241.8C473 241.8 475 239.7 475.7 237.4C476.4 235.1 475.2 233.8 473.1 232.4C470.8 234 468.6 235.6 466.3 237.4C467.6 239.6 468.6 241.7 471.2 241.8Z" fill="#FEBA44"></path> </svg> 